<svg xmlns="http://www.w3.org/2000/svg" viewBox="0 0 23.14 50.89"><defs><style>.cls-1{fill:#1670ad;}</style></defs><g id="Capa_2" data-name="Capa 2"><g id="Encabezado"><path class="cls-1" d="M19.25,15.1a3.9,3.9,0,0,0-1.47,7.51V40.32s.86,8-7.91,8.28c0,0-7.07-.48-7.31-6.58l-.12-5L6.58,39,0,28.75v12A11,11,0,0,0,1.27,46a8.42,8.42,0,0,0,5.55,4.41s7.31,2.44,11.94-3.9c0,0,1.7-1.7,1.7-6.09V22.7a3.9,3.9,0,0,0-1.21-7.6Zm0,5.36A1.46,1.46,0,1,1,20.71,19,1.46,1.46,0,0,1,19.25,20.46Z"/><rect class="cls-1" x="18.27" width="1.46" height="13.89"/></g></g></svg>