<svg xmlns="http://www.w3.org/2000/svg" xmlns:xlink="http://www.w3.org/1999/xlink" viewBox="0 0 1920 552"><defs><style>.cls-1{fill:none;}.cls-2{fill:#fff;}.cls-3{fill:#4d88a2;}.cls-4{fill:url(#Nueva_muestra_de_motivo_5);}</style><pattern id="Nueva_muestra_de_motivo_5" data-name="Nueva muestra de motivo 5" width="250" height="215.08" patternTransform="translate(128 -32.68)" patternUnits="userSpaceOnUse" viewBox="0 0 250 215.09"><rect class="cls-1" width="250" height="215.08"/><path class="cls-2" d="M232.13,185.83c-3.86,0-5.7,1.28-7.82,2.76a16.33,16.33,0,0,1-20.08,0c-2.13-1.48-4-2.76-7.82-2.76s-5.7,1.28-7.83,2.76a16.32,16.32,0,0,1-20.07,0c-2.13-1.48-4-2.76-7.82-2.76s-5.69,1.28-7.82,2.76a16.32,16.32,0,0,1-20.07,0c-2.12-1.48-4-2.76-7.82-2.76s-5.69,1.28-7.82,2.76a16.32,16.32,0,0,1-20.07,0c-2.13-1.48-4-2.76-7.82-2.76s-5.69,1.28-7.82,2.76a16.32,16.32,0,0,1-20.07,0c-2.13-1.48-4-2.76-7.82-2.76s-5.69,1.28-7.82,2.76a15.6,15.6,0,0,1-10,3.45,15.63,15.63,0,0,1-10-3.45c-2.12-1.48-4-2.76-7.82-2.76s-5.69,1.28-7.81,2.76A15.65,15.65,0,0,1,0,192v11.48c3.86,0,5.69-1.28,7.82-2.76a15.68,15.68,0,0,1,10-3.45,15.69,15.69,0,0,1,10,3.45c2.13,1.48,4,2.76,7.82,2.76s5.69-1.28,7.82-2.76a16.32,16.32,0,0,1,20.07,0c2.12,1.48,4,2.76,7.81,2.76s5.7-1.28,7.82-2.76a16.33,16.33,0,0,1,20.08,0c2.12,1.48,4,2.76,7.82,2.76s5.69-1.28,7.82-2.76a16.32,16.32,0,0,1,20.07,0c2.13,1.48,4,2.76,7.82,2.76s5.69-1.28,7.82-2.76a16.32,16.32,0,0,1,20.07,0c2.12,1.48,4,2.76,7.82,2.76s5.69-1.28,7.82-2.76a16.32,16.32,0,0,1,20.07,0c2.13,1.48,4,2.76,7.82,2.76s5.7-1.28,7.83-2.76a16.33,16.33,0,0,1,20.08,0c2.13,1.48,4,2.76,7.83,2.76V192a15.63,15.63,0,0,1-10-3.45C237.83,187.11,236,185.83,232.13,185.83Z"/><path class="cls-2" d="M232.13,170.47c-3.86,0-5.7,1.27-7.82,2.75a16.3,16.3,0,0,1-20.08,0c-2.13-1.48-4-2.75-7.82-2.75s-5.7,1.27-7.83,2.75a16.28,16.28,0,0,1-20.07,0c-2.13-1.48-4-2.75-7.82-2.75s-5.69,1.27-7.82,2.75a16.28,16.28,0,0,1-20.07,0c-2.12-1.48-4-2.75-7.82-2.75s-5.69,1.27-7.82,2.75a16.28,16.28,0,0,1-20.07,0c-2.13-1.48-4-2.75-7.82-2.75s-5.69,1.27-7.82,2.75a16.28,16.28,0,0,1-20.07,0c-2.13-1.48-4-2.75-7.82-2.75s-5.69,1.27-7.82,2.75a15.6,15.6,0,0,1-10,3.46,15.63,15.63,0,0,1-10-3.46c-2.12-1.48-4-2.75-7.82-2.75s-5.69,1.27-7.81,2.75a15.65,15.65,0,0,1-10,3.46v11.48c3.86,0,5.69-1.28,7.82-2.76a15.62,15.62,0,0,1,10-3.45,15.63,15.63,0,0,1,10,3.45c2.13,1.48,4,2.76,7.82,2.76s5.69-1.28,7.82-2.76a16.32,16.32,0,0,1,20.07,0c2.12,1.48,4,2.76,7.81,2.76s5.7-1.28,7.82-2.76a16.33,16.33,0,0,1,20.08,0c2.12,1.48,4,2.76,7.82,2.76s5.69-1.28,7.82-2.76a16.32,16.32,0,0,1,20.07,0c2.13,1.48,4,2.76,7.82,2.76s5.69-1.28,7.82-2.76a16.32,16.32,0,0,1,20.07,0c2.12,1.48,4,2.76,7.82,2.76s5.69-1.28,7.82-2.76a16.32,16.32,0,0,1,20.07,0c2.13,1.48,4,2.76,7.82,2.76s5.7-1.28,7.83-2.76a16.33,16.33,0,0,1,20.08,0c2.13,1.48,4,2.76,7.83,2.76V176.68a15.63,15.63,0,0,1-10-3.46C237.83,171.74,236,170.47,232.13,170.47Z"/><path class="cls-2" d="M0,161.31v11.48c3.86,0,5.69-1.27,7.82-2.75a15.62,15.62,0,0,1,10-3.46,15.63,15.63,0,0,1,10,3.46c2.13,1.48,4,2.75,7.82,2.75s5.69-1.27,7.82-2.75a16.28,16.28,0,0,1,20.07,0c2.12,1.48,4,2.75,7.81,2.75s5.7-1.27,7.82-2.75a16.3,16.3,0,0,1,20.08,0c2.12,1.48,4,2.75,7.82,2.75s5.69-1.27,7.82-2.75A16.28,16.28,0,0,1,135,170c2.13,1.48,4,2.75,7.82,2.75s5.69-1.27,7.82-2.75a16.28,16.28,0,0,1,20.07,0c2.12,1.48,4,2.75,7.82,2.75s5.69-1.27,7.82-2.75a16.28,16.28,0,0,1,20.07,0c2.13,1.48,4,2.75,7.82,2.75s5.7-1.27,7.83-2.75a16.3,16.3,0,0,1,20.08,0c2.13,1.48,4,2.75,7.83,2.75V161.31Z"/><path class="cls-2" d="M232.13,201.19c-3.86,0-5.7,1.28-7.82,2.76a16.33,16.33,0,0,1-20.08,0c-2.13-1.48-4-2.76-7.82-2.76s-5.7,1.28-7.83,2.76a16.32,16.32,0,0,1-20.07,0c-2.13-1.48-4-2.76-7.82-2.76s-5.69,1.28-7.82,2.76a16.32,16.32,0,0,1-20.07,0c-2.12-1.48-4-2.76-7.82-2.76s-5.69,1.28-7.82,2.76a16.32,16.32,0,0,1-20.07,0c-2.13-1.48-4-2.76-7.82-2.76s-5.69,1.28-7.82,2.76a16.32,16.32,0,0,1-20.07,0c-2.13-1.48-4-2.76-7.82-2.76s-5.69,1.28-7.82,2.76a15.6,15.6,0,0,1-10,3.45,15.63,15.63,0,0,1-10-3.45c-2.12-1.48-4-2.76-7.82-2.76S12.16,202.47,10,204A15.65,15.65,0,0,1,0,207.4v11.48c3.86,0,5.69-1.27,7.82-2.75a15.62,15.62,0,0,1,10-3.46,15.63,15.63,0,0,1,10,3.46c2.13,1.48,4,2.75,7.82,2.75s5.69-1.27,7.82-2.75a16.28,16.28,0,0,1,20.07,0c2.12,1.48,4,2.75,7.81,2.75s5.7-1.27,7.82-2.75a16.3,16.3,0,0,1,20.08,0c2.12,1.48,4,2.75,7.82,2.75s5.69-1.27,7.82-2.75a16.28,16.28,0,0,1,20.07,0c2.13,1.48,4,2.75,7.82,2.75s5.69-1.27,7.82-2.75a16.28,16.28,0,0,1,20.07,0c2.12,1.48,4,2.75,7.82,2.75s5.69-1.27,7.82-2.75a16.28,16.28,0,0,1,20.07,0c2.13,1.48,4,2.75,7.82,2.75s5.7-1.27,7.83-2.75a16.3,16.3,0,0,1,20.08,0c2.13,1.48,4,2.75,7.83,2.75V207.4A15.63,15.63,0,0,1,240,204C237.83,202.47,236,201.19,232.13,201.19Z"/><path class="cls-3" d="M232.13,166.58a15.65,15.65,0,0,0-10,3.46c-2.13,1.48-4,2.75-7.83,2.75s-5.69-1.27-7.82-2.75a16.28,16.28,0,0,0-20.07,0c-2.13,1.48-4,2.75-7.82,2.75s-5.7-1.27-7.82-2.75a16.28,16.28,0,0,0-20.07,0c-2.13,1.48-4,2.75-7.82,2.75s-5.69-1.27-7.82-2.75A16.28,16.28,0,0,0,115,170c-2.13,1.48-4,2.75-7.82,2.75s-5.7-1.27-7.82-2.75a16.3,16.3,0,0,0-20.08,0c-2.12,1.48-4,2.75-7.82,2.75s-5.69-1.27-7.81-2.75a16.28,16.28,0,0,0-20.07,0c-2.13,1.48-4,2.75-7.82,2.75S30,171.52,27.89,170a15.63,15.63,0,0,0-10-3.46,15.62,15.62,0,0,0-10,3.46c-2.13,1.48-4,2.75-7.82,2.75v3.89a15.65,15.65,0,0,0,10-3.46c2.12-1.48,4-2.75,7.81-2.75s5.7,1.27,7.82,2.75a15.63,15.63,0,0,0,10,3.46,15.6,15.6,0,0,0,10-3.46c2.13-1.48,4-2.75,7.82-2.75s5.69,1.27,7.82,2.75a16.28,16.28,0,0,0,20.07,0c2.13-1.48,4-2.75,7.82-2.75s5.69,1.27,7.82,2.75a16.28,16.28,0,0,0,20.07,0c2.13-1.48,4-2.75,7.82-2.75s5.7,1.27,7.82,2.75a16.28,16.28,0,0,0,20.07,0c2.13-1.48,4-2.75,7.82-2.75s5.69,1.27,7.82,2.75a16.28,16.28,0,0,0,20.07,0c2.13-1.48,4-2.75,7.83-2.75s5.69,1.27,7.82,2.75a16.3,16.3,0,0,0,20.08,0c2.12-1.48,4-2.75,7.82-2.75s5.7,1.27,7.83,2.75a15.63,15.63,0,0,0,10,3.46v-3.89c-3.86,0-5.7-1.27-7.83-2.75A15.61,15.61,0,0,0,232.13,166.58Z"/><path class="cls-3" d="M232.13,182a15.65,15.65,0,0,0-10,3.45c-2.13,1.48-4,2.76-7.83,2.76s-5.69-1.28-7.82-2.76a16.32,16.32,0,0,0-20.07,0c-2.13,1.48-4,2.76-7.82,2.76s-5.7-1.28-7.82-2.76a16.32,16.32,0,0,0-20.07,0c-2.13,1.48-4,2.76-7.82,2.76s-5.69-1.28-7.82-2.76a16.32,16.32,0,0,0-20.07,0c-2.13,1.48-4,2.76-7.82,2.76s-5.7-1.28-7.82-2.76a16.33,16.33,0,0,0-20.08,0c-2.12,1.48-4,2.76-7.82,2.76s-5.69-1.28-7.81-2.76a16.32,16.32,0,0,0-20.07,0c-2.13,1.48-4,2.76-7.82,2.76s-5.69-1.28-7.82-2.76a15.63,15.63,0,0,0-10-3.45,15.62,15.62,0,0,0-10,3.45c-2.13,1.48-4,2.76-7.82,2.76V192a15.65,15.65,0,0,0,10-3.45c2.12-1.48,4-2.76,7.81-2.76s5.7,1.28,7.82,2.76a15.63,15.63,0,0,0,10,3.45,15.6,15.6,0,0,0,10-3.45c2.13-1.48,4-2.76,7.82-2.76s5.69,1.28,7.82,2.76a16.32,16.32,0,0,0,20.07,0c2.13-1.48,4-2.76,7.82-2.76s5.69,1.28,7.82,2.76a16.32,16.32,0,0,0,20.07,0c2.13-1.48,4-2.76,7.82-2.76s5.7,1.28,7.82,2.76a16.32,16.32,0,0,0,20.07,0c2.13-1.48,4-2.76,7.82-2.76s5.69,1.28,7.82,2.76a16.32,16.32,0,0,0,20.07,0c2.13-1.48,4-2.76,7.83-2.76s5.69,1.28,7.82,2.76a16.33,16.33,0,0,0,20.08,0c2.12-1.48,4-2.76,7.82-2.76s5.7,1.28,7.83,2.76A15.63,15.63,0,0,0,250,192v-3.88c-3.86,0-5.7-1.28-7.83-2.76A15.61,15.61,0,0,0,232.13,182Z"/><path class="cls-3" d="M232.13,197.31a15.71,15.71,0,0,0-10,3.45c-2.13,1.48-4,2.76-7.83,2.76s-5.69-1.28-7.82-2.76a16.32,16.32,0,0,0-20.07,0c-2.13,1.48-4,2.76-7.82,2.76s-5.7-1.28-7.82-2.76a16.32,16.32,0,0,0-20.07,0c-2.13,1.48-4,2.76-7.82,2.76s-5.69-1.28-7.82-2.76a16.32,16.32,0,0,0-20.07,0c-2.13,1.48-4,2.76-7.82,2.76s-5.7-1.28-7.82-2.76a16.33,16.33,0,0,0-20.08,0c-2.12,1.48-4,2.76-7.82,2.76s-5.69-1.28-7.81-2.76a16.32,16.32,0,0,0-20.07,0c-2.13,1.48-4,2.76-7.82,2.76s-5.69-1.28-7.82-2.76a15.69,15.69,0,0,0-10-3.45,15.68,15.68,0,0,0-10,3.45c-2.13,1.48-4,2.76-7.82,2.76v3.88A15.65,15.65,0,0,0,10,204c2.12-1.48,4-2.76,7.81-2.76s5.7,1.28,7.82,2.76a15.63,15.63,0,0,0,10,3.45,15.6,15.6,0,0,0,10-3.45c2.13-1.48,4-2.76,7.82-2.76s5.69,1.28,7.82,2.76a16.32,16.32,0,0,0,20.07,0c2.13-1.48,4-2.76,7.82-2.76S95,202.47,97.09,204a16.32,16.32,0,0,0,20.07,0c2.13-1.48,4-2.76,7.82-2.76s5.7,1.28,7.82,2.76a16.32,16.32,0,0,0,20.07,0c2.13-1.48,4-2.76,7.82-2.76s5.69,1.28,7.82,2.76a16.32,16.32,0,0,0,20.07,0c2.13-1.48,4-2.76,7.83-2.76s5.69,1.28,7.82,2.76a16.33,16.33,0,0,0,20.08,0c2.12-1.48,4-2.76,7.82-2.76s5.7,1.28,7.83,2.76a15.63,15.63,0,0,0,10,3.45v-3.88c-3.86,0-5.7-1.28-7.83-2.76A15.66,15.66,0,0,0,232.13,197.31Z"/><path class="cls-3" d="M232.13,212.67a15.65,15.65,0,0,0-10,3.46c-2.13,1.48-4,2.75-7.83,2.75s-5.69-1.27-7.82-2.75a16.28,16.28,0,0,0-20.07,0c-2.13,1.48-4,2.75-7.82,2.75s-5.7-1.27-7.82-2.75a16.28,16.28,0,0,0-20.07,0c-2.13,1.48-4,2.75-7.82,2.75s-5.69-1.27-7.82-2.75a16.28,16.28,0,0,0-20.07,0c-2.13,1.48-4,2.75-7.82,2.75s-5.7-1.27-7.82-2.75a16.3,16.3,0,0,0-20.08,0c-2.12,1.48-4,2.75-7.82,2.75s-5.69-1.27-7.81-2.75a16.28,16.28,0,0,0-20.07,0c-2.13,1.48-4,2.75-7.82,2.75s-5.69-1.27-7.82-2.75a15.63,15.63,0,0,0-10-3.46,15.62,15.62,0,0,0-10,3.46c-2.13,1.48-4,2.75-7.82,2.75v3.89a15.65,15.65,0,0,0,10-3.46c2.12-1.48,4-2.75,7.81-2.75s5.7,1.27,7.82,2.75a15.63,15.63,0,0,0,10,3.46,15.6,15.6,0,0,0,10-3.46c2.13-1.48,4-2.75,7.82-2.75s5.69,1.27,7.82,2.75a16.28,16.28,0,0,0,20.07,0c2.13-1.48,4-2.75,7.82-2.75s5.69,1.27,7.82,2.75a16.28,16.28,0,0,0,20.07,0c2.13-1.48,4-2.75,7.82-2.75s5.7,1.27,7.82,2.75a16.28,16.28,0,0,0,20.07,0c2.13-1.48,4-2.75,7.82-2.75s5.69,1.27,7.82,2.75a16.28,16.28,0,0,0,20.07,0c2.13-1.48,4-2.75,7.83-2.75s5.69,1.27,7.82,2.75a16.3,16.3,0,0,0,20.08,0c2.12-1.48,4-2.75,7.82-2.75s5.7,1.27,7.83,2.75a15.63,15.63,0,0,0,10,3.46v-3.89c-3.86,0-5.7-1.27-7.83-2.75A15.61,15.61,0,0,0,232.13,212.67Z"/><path class="cls-2" d="M53.56,155.1c-3.85,0-5.69,1.28-7.82,2.76a15.6,15.6,0,0,1-10,3.45h35.7a15.6,15.6,0,0,1-10-3.45C59.25,156.38,57.41,155.1,53.56,155.1Z"/><path class="cls-2" d="M232.13,139.74c-3.86,0-5.7,1.28-7.82,2.76a16.33,16.33,0,0,1-20.08,0c-2.13-1.48-4-2.76-7.82-2.76s-5.7,1.28-7.83,2.76a16.32,16.32,0,0,1-20.07,0c-2.13-1.48-4-2.76-7.82-2.76S155,141,152.87,142.5a16.32,16.32,0,0,1-20.07,0c-2.12-1.48-4-2.76-7.82-2.76s-5.69,1.28-7.82,2.76a16.32,16.32,0,0,1-20.07,0c-2.13-1.48-4-2.76-7.82-2.76s-5.69,1.28-7.82,2.76a16.32,16.32,0,0,1-20.07,0c-2.13-1.48-4-2.76-7.82-2.76s-5.69,1.28-7.82,2.76a15.6,15.6,0,0,1-10,3.45,15.63,15.63,0,0,1-10-3.45c-2.12-1.48-4-2.76-7.82-2.76S12.16,141,10,142.5A15.65,15.65,0,0,1,0,146v11.48c3.86,0,5.69-1.28,7.82-2.76a15.68,15.68,0,0,1,10-3.45,15.69,15.69,0,0,1,10,3.45c2.13,1.48,4,2.76,7.82,2.76s5.69-1.28,7.82-2.76a16.32,16.32,0,0,1,20.07,0c2.12,1.48,4,2.76,7.81,2.76s5.7-1.28,7.82-2.76a16.33,16.33,0,0,1,20.08,0c2.12,1.48,4,2.76,7.82,2.76s5.69-1.28,7.82-2.76a16.32,16.32,0,0,1,20.07,0c2.13,1.48,4,2.76,7.82,2.76s5.69-1.28,7.82-2.76a16.32,16.32,0,0,1,20.07,0c2.12,1.48,4,2.76,7.82,2.76s5.69-1.28,7.82-2.76a16.32,16.32,0,0,1,20.07,0c2.13,1.48,4,2.76,7.82,2.76s5.7-1.28,7.83-2.76a16.33,16.33,0,0,1,20.08,0c2.13,1.48,4,2.76,7.83,2.76V146a15.63,15.63,0,0,1-10-3.45C237.83,141,236,139.74,232.13,139.74Z"/><path class="cls-2" d="M232.13,124.38c-3.86,0-5.7,1.27-7.82,2.75a16.3,16.3,0,0,1-20.08,0c-2.13-1.48-4-2.75-7.82-2.75s-5.7,1.27-7.83,2.75a16.28,16.28,0,0,1-20.07,0c-2.13-1.48-4-2.75-7.82-2.75s-5.69,1.27-7.82,2.75a16.28,16.28,0,0,1-20.07,0c-2.12-1.48-4-2.75-7.82-2.75s-5.69,1.27-7.82,2.75a16.28,16.28,0,0,1-20.07,0c-2.13-1.48-4-2.75-7.82-2.75s-5.69,1.27-7.82,2.75a16.28,16.28,0,0,1-20.07,0c-2.13-1.48-4-2.75-7.82-2.75s-5.69,1.27-7.82,2.75a15.6,15.6,0,0,1-10,3.46,15.63,15.63,0,0,1-10-3.46c-2.12-1.48-4-2.75-7.82-2.75s-5.69,1.27-7.81,2.75a15.65,15.65,0,0,1-10,3.46v11.48c3.86,0,5.69-1.28,7.82-2.76a15.62,15.62,0,0,1,10-3.45,15.63,15.63,0,0,1,10,3.45c2.13,1.48,4,2.76,7.82,2.76s5.69-1.28,7.82-2.76a16.32,16.32,0,0,1,20.07,0c2.12,1.48,4,2.76,7.81,2.76s5.7-1.28,7.82-2.76a16.33,16.33,0,0,1,20.08,0c2.12,1.48,4,2.76,7.82,2.76s5.69-1.28,7.82-2.76a16.32,16.32,0,0,1,20.07,0c2.13,1.48,4,2.76,7.82,2.76s5.69-1.28,7.82-2.76a16.32,16.32,0,0,1,20.07,0c2.12,1.48,4,2.76,7.82,2.76s5.69-1.28,7.82-2.76a16.32,16.32,0,0,1,20.07,0c2.13,1.48,4,2.76,7.82,2.76s5.7-1.28,7.83-2.76a16.33,16.33,0,0,1,20.08,0c2.13,1.48,4,2.76,7.83,2.76V130.59a15.63,15.63,0,0,1-10-3.46C237.83,125.65,236,124.38,232.13,124.38Z"/><path class="cls-2" d="M196.41,155.1c-3.86,0-5.7,1.28-7.83,2.76a15.6,15.6,0,0,1-10,3.45h35.71a15.6,15.6,0,0,1-10-3.45C202.1,156.38,200.26,155.1,196.41,155.1Z"/><path class="cls-2" d="M17.85,155.1c-3.85,0-5.69,1.28-7.81,2.76a15.65,15.65,0,0,1-10,3.45H35.71a15.63,15.63,0,0,1-10-3.45C23.55,156.38,21.71,155.1,17.85,155.1Z"/><path class="cls-2" d="M160.69,155.1c-3.85,0-5.69,1.28-7.82,2.76a15.6,15.6,0,0,1-10,3.45h35.71a15.63,15.63,0,0,1-10-3.45C166.38,156.38,164.55,155.1,160.69,155.1Z"/><path class="cls-2" d="M89.27,155.1c-3.85,0-5.69,1.28-7.82,2.76a15.63,15.63,0,0,1-10,3.45h35.72a15.63,15.63,0,0,1-10-3.45C95,156.38,93.13,155.1,89.27,155.1Z"/><path class="cls-2" d="M232.13,155.1c-3.86,0-5.7,1.28-7.82,2.76a15.66,15.66,0,0,1-10.05,3.45H250a15.63,15.63,0,0,1-10-3.45C237.83,156.38,236,155.1,232.13,155.1Z"/><path class="cls-2" d="M125,155.1c-3.85,0-5.69,1.28-7.82,2.76a15.6,15.6,0,0,1-10,3.45h35.71a15.65,15.65,0,0,1-10-3.45C130.68,156.38,128.84,155.1,125,155.1Z"/><path class="cls-2" d="M232.13,78.29c-3.86,0-5.7,1.27-7.82,2.75a16.3,16.3,0,0,1-20.08,0c-2.13-1.48-4-2.75-7.82-2.75s-5.7,1.27-7.83,2.75a16.28,16.28,0,0,1-20.07,0c-2.13-1.48-4-2.75-7.82-2.75S155,79.56,152.87,81a16.28,16.28,0,0,1-20.07,0c-2.12-1.48-4-2.75-7.82-2.75s-5.69,1.27-7.82,2.75a16.28,16.28,0,0,1-20.07,0c-2.13-1.48-4-2.75-7.82-2.75S83.58,79.56,81.45,81a16.28,16.28,0,0,1-20.07,0c-2.13-1.48-4-2.75-7.82-2.75S47.87,79.56,45.74,81a15.6,15.6,0,0,1-10,3.46,15.63,15.63,0,0,1-10-3.46c-2.12-1.48-4-2.75-7.82-2.75S12.16,79.56,10,81A15.65,15.65,0,0,1,0,84.5V96c3.86,0,5.69-1.28,7.82-2.76a15.62,15.62,0,0,1,10-3.45,15.63,15.63,0,0,1,10,3.45C30,94.7,31.85,96,35.71,96s5.69-1.28,7.82-2.76a16.32,16.32,0,0,1,20.07,0c2.12,1.48,4,2.76,7.81,2.76s5.7-1.28,7.82-2.76a16.33,16.33,0,0,1,20.08,0c2.12,1.48,4,2.76,7.82,2.76s5.69-1.28,7.82-2.76a16.32,16.32,0,0,1,20.07,0c2.13,1.48,4,2.76,7.82,2.76s5.69-1.28,7.82-2.76a16.32,16.32,0,0,1,20.07,0c2.12,1.48,4,2.76,7.82,2.76s5.69-1.28,7.82-2.76a16.32,16.32,0,0,1,20.07,0c2.13,1.48,4,2.76,7.82,2.76s5.7-1.28,7.83-2.76a16.33,16.33,0,0,1,20.08,0c2.13,1.48,4,2.76,7.83,2.76V84.5A15.63,15.63,0,0,1,240,81C237.83,79.56,236,78.29,232.13,78.29Z"/><path class="cls-2" d="M232.13,62.92c-3.86,0-5.7,1.28-7.82,2.76a16.33,16.33,0,0,1-20.08,0c-2.13-1.48-4-2.76-7.82-2.76s-5.7,1.28-7.83,2.76a16.32,16.32,0,0,1-20.07,0c-2.13-1.48-4-2.76-7.82-2.76s-5.69,1.28-7.82,2.76a16.32,16.32,0,0,1-20.07,0c-2.12-1.48-4-2.76-7.82-2.76s-5.69,1.28-7.82,2.76a16.32,16.32,0,0,1-20.07,0c-2.13-1.48-4-2.76-7.82-2.76s-5.69,1.28-7.82,2.76a16.32,16.32,0,0,1-20.07,0c-2.13-1.48-4-2.76-7.82-2.76s-5.69,1.28-7.82,2.76a15.6,15.6,0,0,1-10,3.45,15.63,15.63,0,0,1-10-3.45c-2.12-1.48-4-2.76-7.82-2.76S12.16,64.2,10,65.68A15.65,15.65,0,0,1,0,69.13V80.62c3.86,0,5.69-1.28,7.82-2.76a15.62,15.62,0,0,1,10-3.46,15.63,15.63,0,0,1,10,3.46c2.13,1.48,4,2.76,7.82,2.76s5.69-1.28,7.82-2.76a16.28,16.28,0,0,1,20.07,0c2.12,1.48,4,2.76,7.81,2.76s5.7-1.28,7.82-2.76a16.3,16.3,0,0,1,20.08,0c2.12,1.48,4,2.76,7.82,2.76s5.69-1.28,7.82-2.76a16.28,16.28,0,0,1,20.07,0c2.13,1.48,4,2.76,7.82,2.76s5.69-1.28,7.82-2.76a16.28,16.28,0,0,1,20.07,0c2.12,1.48,4,2.76,7.82,2.76s5.69-1.28,7.82-2.76a16.28,16.28,0,0,1,20.07,0c2.13,1.48,4,2.76,7.82,2.76s5.7-1.28,7.83-2.76a16.3,16.3,0,0,1,20.08,0c2.13,1.48,4,2.76,7.83,2.76V69.13a15.63,15.63,0,0,1-10-3.45C237.83,64.2,236,62.92,232.13,62.92Z"/><path class="cls-2" d="M0,53.77V65.25c3.86,0,5.69-1.28,7.82-2.76a15.68,15.68,0,0,1,10-3.45,15.69,15.69,0,0,1,10,3.45c2.13,1.48,4,2.76,7.82,2.76S41.4,64,43.53,62.49a16.32,16.32,0,0,1,20.07,0c2.12,1.48,4,2.76,7.81,2.76s5.7-1.28,7.82-2.76a16.33,16.33,0,0,1,20.08,0c2.12,1.48,4,2.76,7.82,2.76S112.82,64,115,62.49a16.32,16.32,0,0,1,20.07,0c2.13,1.48,4,2.76,7.82,2.76s5.69-1.28,7.82-2.76a16.32,16.32,0,0,1,20.07,0c2.12,1.48,4,2.76,7.82,2.76s5.69-1.28,7.82-2.76a16.32,16.32,0,0,1,20.07,0c2.13,1.48,4,2.76,7.82,2.76s5.7-1.28,7.83-2.76a16.33,16.33,0,0,1,20.08,0c2.13,1.48,4,2.76,7.83,2.76V53.77Z"/><path class="cls-2" d="M232.13,93.65c-3.86,0-5.7,1.28-7.82,2.76a16.33,16.33,0,0,1-20.08,0c-2.13-1.48-4-2.76-7.82-2.76s-5.7,1.28-7.83,2.76a16.32,16.32,0,0,1-20.07,0c-2.13-1.48-4-2.76-7.82-2.76s-5.69,1.28-7.82,2.76a16.32,16.32,0,0,1-20.07,0c-2.12-1.48-4-2.76-7.82-2.76s-5.69,1.28-7.82,2.76a16.32,16.32,0,0,1-20.07,0c-2.13-1.48-4-2.76-7.82-2.76s-5.69,1.28-7.82,2.76a16.32,16.32,0,0,1-20.07,0c-2.13-1.48-4-2.76-7.82-2.76s-5.69,1.28-7.82,2.76a15.6,15.6,0,0,1-10,3.45,15.63,15.63,0,0,1-10-3.45c-2.12-1.48-4-2.76-7.82-2.76S12.16,94.93,10,96.41A15.65,15.65,0,0,1,0,99.86v11.48c3.86,0,5.69-1.28,7.82-2.76a15.68,15.68,0,0,1,10-3.45,15.69,15.69,0,0,1,10,3.45c2.13,1.48,4,2.76,7.82,2.76s5.69-1.28,7.82-2.76a16.32,16.32,0,0,1,20.07,0c2.12,1.48,4,2.76,7.81,2.76s5.7-1.28,7.82-2.76a16.33,16.33,0,0,1,20.08,0c2.12,1.48,4,2.76,7.82,2.76s5.69-1.28,7.82-2.76a16.32,16.32,0,0,1,20.07,0c2.13,1.48,4,2.76,7.82,2.76s5.69-1.28,7.82-2.76a16.32,16.32,0,0,1,20.07,0c2.12,1.48,4,2.76,7.82,2.76s5.69-1.28,7.82-2.76a16.32,16.32,0,0,1,20.07,0c2.13,1.48,4,2.76,7.82,2.76s5.7-1.28,7.83-2.76a16.33,16.33,0,0,1,20.08,0c2.13,1.48,4,2.76,7.83,2.76V99.86a15.63,15.63,0,0,1-10-3.45C237.83,94.93,236,93.65,232.13,93.65Z"/><path class="cls-2" d="M232.13,109c-3.86,0-5.7,1.28-7.82,2.76a16.33,16.33,0,0,1-20.08,0c-2.13-1.48-4-2.76-7.82-2.76s-5.7,1.28-7.83,2.76a16.32,16.32,0,0,1-20.07,0c-2.13-1.48-4-2.76-7.82-2.76s-5.69,1.28-7.82,2.76a16.32,16.32,0,0,1-20.07,0c-2.12-1.48-4-2.76-7.82-2.76s-5.69,1.28-7.82,2.76a16.32,16.32,0,0,1-20.07,0c-2.13-1.48-4-2.76-7.82-2.76s-5.69,1.28-7.82,2.76a16.32,16.32,0,0,1-20.07,0c-2.13-1.48-4-2.76-7.82-2.76s-5.69,1.28-7.82,2.76a15.6,15.6,0,0,1-10,3.45,15.63,15.63,0,0,1-10-3.45c-2.12-1.48-4-2.76-7.82-2.76s-5.69,1.28-7.81,2.76a15.65,15.65,0,0,1-10,3.45v11.49c3.86,0,5.69-1.28,7.82-2.76a15.62,15.62,0,0,1,10-3.46,15.63,15.63,0,0,1,10,3.46c2.13,1.48,4,2.76,7.82,2.76s5.69-1.28,7.82-2.76a16.28,16.28,0,0,1,20.07,0c2.12,1.48,4,2.76,7.81,2.76s5.7-1.28,7.82-2.76a16.3,16.3,0,0,1,20.08,0c2.12,1.48,4,2.76,7.82,2.76s5.69-1.28,7.82-2.76A16.28,16.28,0,0,1,135,124c2.13,1.48,4,2.76,7.82,2.76s5.69-1.28,7.82-2.76a16.28,16.28,0,0,1,20.07,0c2.12,1.48,4,2.76,7.82,2.76s5.69-1.28,7.82-2.76a16.28,16.28,0,0,1,20.07,0c2.13,1.48,4,2.76,7.82,2.76s5.7-1.28,7.83-2.76a16.3,16.3,0,0,1,20.08,0c2.13,1.48,4,2.76,7.83,2.76V115.22a15.63,15.63,0,0,1-10-3.45C237.83,110.29,236,109,232.13,109Z"/><path class="cls-3" d="M232.13,59a15.71,15.71,0,0,0-10,3.45c-2.13,1.48-4,2.76-7.83,2.76s-5.69-1.28-7.82-2.76a16.32,16.32,0,0,0-20.07,0c-2.13,1.48-4,2.76-7.82,2.76s-5.7-1.28-7.82-2.76a16.32,16.32,0,0,0-20.07,0c-2.13,1.48-4,2.76-7.82,2.76S137.15,64,135,62.49a16.32,16.32,0,0,0-20.07,0c-2.13,1.48-4,2.76-7.82,2.76s-5.7-1.28-7.82-2.76a16.33,16.33,0,0,0-20.08,0c-2.12,1.48-4,2.76-7.82,2.76S65.72,64,63.6,62.49a16.32,16.32,0,0,0-20.07,0c-2.13,1.48-4,2.76-7.82,2.76S30,64,27.89,62.49a15.69,15.69,0,0,0-10-3.45,15.68,15.68,0,0,0-10,3.45C5.69,64,3.86,65.25,0,65.25v3.88a15.65,15.65,0,0,0,10-3.45c2.12-1.48,4-2.76,7.81-2.76s5.7,1.28,7.82,2.76a15.63,15.63,0,0,0,10,3.45,15.6,15.6,0,0,0,10-3.45c2.13-1.48,4-2.76,7.82-2.76s5.69,1.28,7.82,2.76a16.32,16.32,0,0,0,20.07,0c2.13-1.48,4-2.76,7.82-2.76S95,64.2,97.09,65.68a16.32,16.32,0,0,0,20.07,0c2.13-1.48,4-2.76,7.82-2.76s5.7,1.28,7.82,2.76a16.32,16.32,0,0,0,20.07,0c2.13-1.48,4-2.76,7.82-2.76s5.69,1.28,7.82,2.76a16.32,16.32,0,0,0,20.07,0c2.13-1.48,4-2.76,7.83-2.76s5.69,1.28,7.82,2.76a16.33,16.33,0,0,0,20.08,0c2.12-1.48,4-2.76,7.82-2.76s5.7,1.28,7.83,2.76a15.63,15.63,0,0,0,10,3.45V65.25c-3.86,0-5.7-1.28-7.83-2.76A15.66,15.66,0,0,0,232.13,59Z"/><path class="cls-3" d="M232.13,74.4a15.65,15.65,0,0,0-10,3.46c-2.13,1.48-4,2.76-7.83,2.76s-5.69-1.28-7.82-2.76a16.28,16.28,0,0,0-20.07,0c-2.13,1.48-4,2.76-7.82,2.76s-5.7-1.28-7.82-2.76a16.28,16.28,0,0,0-20.07,0c-2.13,1.48-4,2.76-7.82,2.76s-5.69-1.28-7.82-2.76a16.28,16.28,0,0,0-20.07,0c-2.13,1.48-4,2.76-7.82,2.76s-5.7-1.28-7.82-2.76a16.3,16.3,0,0,0-20.08,0c-2.12,1.48-4,2.76-7.82,2.76s-5.69-1.28-7.81-2.76a16.28,16.28,0,0,0-20.07,0c-2.13,1.48-4,2.76-7.82,2.76S30,79.34,27.89,77.86a15.63,15.63,0,0,0-10-3.46,15.62,15.62,0,0,0-10,3.46c-2.13,1.48-4,2.76-7.82,2.76V84.5A15.65,15.65,0,0,0,10,81c2.12-1.48,4-2.75,7.81-2.75s5.7,1.27,7.82,2.75a15.63,15.63,0,0,0,10,3.46,15.6,15.6,0,0,0,10-3.46c2.13-1.48,4-2.75,7.82-2.75s5.69,1.27,7.82,2.75a16.28,16.28,0,0,0,20.07,0c2.13-1.48,4-2.75,7.82-2.75S95,79.56,97.09,81a16.28,16.28,0,0,0,20.07,0c2.13-1.48,4-2.75,7.82-2.75s5.7,1.27,7.82,2.75a16.28,16.28,0,0,0,20.07,0c2.13-1.48,4-2.75,7.82-2.75s5.69,1.27,7.82,2.75a16.28,16.28,0,0,0,20.07,0c2.13-1.48,4-2.75,7.83-2.75s5.69,1.27,7.82,2.75a16.3,16.3,0,0,0,20.08,0c2.12-1.48,4-2.75,7.82-2.75s5.7,1.27,7.83,2.75a15.63,15.63,0,0,0,10,3.46V80.62c-3.86,0-5.7-1.28-7.83-2.76A15.61,15.61,0,0,0,232.13,74.4Z"/><path class="cls-3" d="M232.13,89.77a15.65,15.65,0,0,0-10,3.45c-2.13,1.48-4,2.76-7.83,2.76s-5.69-1.28-7.82-2.76a16.32,16.32,0,0,0-20.07,0c-2.13,1.48-4,2.76-7.82,2.76s-5.7-1.28-7.82-2.76a16.32,16.32,0,0,0-20.07,0c-2.13,1.48-4,2.76-7.82,2.76s-5.69-1.28-7.82-2.76a16.32,16.32,0,0,0-20.07,0c-2.13,1.48-4,2.76-7.82,2.76s-5.7-1.28-7.82-2.76a16.33,16.33,0,0,0-20.08,0c-2.12,1.48-4,2.76-7.82,2.76s-5.69-1.28-7.81-2.76a16.32,16.32,0,0,0-20.07,0C41.4,94.7,39.56,96,35.71,96S30,94.7,27.89,93.22a15.63,15.63,0,0,0-10-3.45,15.62,15.62,0,0,0-10,3.45C5.69,94.7,3.86,96,0,96v3.88a15.65,15.65,0,0,0,10-3.45c2.12-1.48,4-2.76,7.81-2.76s5.7,1.28,7.82,2.76a15.63,15.63,0,0,0,10,3.45,15.6,15.6,0,0,0,10-3.45c2.13-1.48,4-2.76,7.82-2.76s5.69,1.28,7.82,2.76a16.32,16.32,0,0,0,20.07,0c2.13-1.48,4-2.76,7.82-2.76s5.69,1.28,7.82,2.76a16.32,16.32,0,0,0,20.07,0c2.13-1.48,4-2.76,7.82-2.76s5.7,1.28,7.82,2.76a16.32,16.32,0,0,0,20.07,0c2.13-1.48,4-2.76,7.82-2.76s5.69,1.28,7.82,2.76a16.32,16.32,0,0,0,20.07,0c2.13-1.48,4-2.76,7.83-2.76s5.69,1.28,7.82,2.76a16.33,16.33,0,0,0,20.08,0c2.12-1.48,4-2.76,7.82-2.76s5.7,1.28,7.83,2.76a15.63,15.63,0,0,0,10,3.45V96c-3.86,0-5.7-1.28-7.83-2.76A15.61,15.61,0,0,0,232.13,89.77Z"/><path class="cls-3" d="M232.13,105.13a15.71,15.71,0,0,0-10,3.45c-2.13,1.48-4,2.76-7.83,2.76s-5.69-1.28-7.82-2.76a16.32,16.32,0,0,0-20.07,0c-2.13,1.48-4,2.76-7.82,2.76s-5.7-1.28-7.82-2.76a16.32,16.32,0,0,0-20.07,0c-2.13,1.48-4,2.76-7.82,2.76s-5.69-1.28-7.82-2.76a16.32,16.32,0,0,0-20.07,0c-2.13,1.48-4,2.76-7.82,2.76s-5.7-1.28-7.82-2.76a16.33,16.33,0,0,0-20.08,0c-2.12,1.48-4,2.76-7.82,2.76s-5.69-1.28-7.81-2.76a16.32,16.32,0,0,0-20.07,0c-2.13,1.48-4,2.76-7.82,2.76s-5.69-1.28-7.82-2.76a15.69,15.69,0,0,0-10-3.45,15.68,15.68,0,0,0-10,3.45c-2.13,1.48-4,2.76-7.82,2.76v3.88a15.65,15.65,0,0,0,10-3.45c2.12-1.48,4-2.76,7.81-2.76s5.7,1.28,7.82,2.76a15.63,15.63,0,0,0,10,3.45,15.6,15.6,0,0,0,10-3.45c2.13-1.48,4-2.76,7.82-2.76s5.69,1.28,7.82,2.76a16.32,16.32,0,0,0,20.07,0c2.13-1.48,4-2.76,7.82-2.76s5.69,1.28,7.82,2.76a16.32,16.32,0,0,0,20.07,0c2.13-1.48,4-2.76,7.82-2.76s5.7,1.28,7.82,2.76a16.32,16.32,0,0,0,20.07,0c2.13-1.48,4-2.76,7.82-2.76s5.69,1.28,7.82,2.76a16.32,16.32,0,0,0,20.07,0c2.13-1.48,4-2.76,7.83-2.76s5.69,1.28,7.82,2.76a16.33,16.33,0,0,0,20.08,0c2.12-1.48,4-2.76,7.82-2.76s5.7,1.28,7.83,2.76a15.63,15.63,0,0,0,10,3.45v-3.88c-3.86,0-5.7-1.28-7.83-2.76A15.66,15.66,0,0,0,232.13,105.13Z"/><path class="cls-3" d="M232.13,120.49a15.65,15.65,0,0,0-10,3.46c-2.13,1.48-4,2.76-7.83,2.76s-5.69-1.28-7.82-2.76a16.28,16.28,0,0,0-20.07,0c-2.13,1.48-4,2.76-7.82,2.76s-5.7-1.28-7.82-2.76a16.28,16.28,0,0,0-20.07,0c-2.13,1.48-4,2.76-7.82,2.76s-5.69-1.28-7.82-2.76A16.28,16.28,0,0,0,115,124c-2.13,1.48-4,2.76-7.82,2.76s-5.7-1.28-7.82-2.76a16.3,16.3,0,0,0-20.08,0c-2.12,1.48-4,2.76-7.82,2.76s-5.69-1.28-7.81-2.76a16.28,16.28,0,0,0-20.07,0c-2.13,1.48-4,2.76-7.82,2.76S30,125.43,27.89,124a15.63,15.63,0,0,0-10-3.46,15.62,15.62,0,0,0-10,3.46c-2.13,1.48-4,2.76-7.82,2.76v3.88a15.65,15.65,0,0,0,10-3.46c2.12-1.48,4-2.75,7.81-2.75s5.7,1.27,7.82,2.75a15.63,15.63,0,0,0,10,3.46,15.6,15.6,0,0,0,10-3.46c2.13-1.48,4-2.75,7.82-2.75s5.69,1.27,7.82,2.75a16.28,16.28,0,0,0,20.07,0c2.13-1.48,4-2.75,7.82-2.75s5.69,1.27,7.82,2.75a16.28,16.28,0,0,0,20.07,0c2.13-1.48,4-2.75,7.82-2.75s5.7,1.27,7.82,2.75a16.28,16.28,0,0,0,20.07,0c2.13-1.48,4-2.75,7.82-2.75s5.69,1.27,7.82,2.75a16.28,16.28,0,0,0,20.07,0c2.13-1.48,4-2.75,7.83-2.75s5.69,1.27,7.82,2.75a16.3,16.3,0,0,0,20.08,0c2.12-1.48,4-2.75,7.82-2.75s5.7,1.27,7.83,2.75a15.63,15.63,0,0,0,10,3.46v-3.88c-3.86,0-5.7-1.28-7.83-2.76A15.61,15.61,0,0,0,232.13,120.49Z"/><path class="cls-3" d="M232.13,135.86a15.65,15.65,0,0,0-10,3.45c-2.13,1.48-4,2.76-7.83,2.76s-5.69-1.28-7.82-2.76a16.32,16.32,0,0,0-20.07,0c-2.13,1.48-4,2.76-7.82,2.76s-5.7-1.28-7.82-2.76a16.32,16.32,0,0,0-20.07,0c-2.13,1.48-4,2.76-7.82,2.76s-5.69-1.28-7.82-2.76a16.32,16.32,0,0,0-20.07,0c-2.13,1.48-4,2.76-7.82,2.76s-5.7-1.28-7.82-2.76a16.33,16.33,0,0,0-20.08,0c-2.12,1.48-4,2.76-7.82,2.76s-5.69-1.28-7.81-2.76a16.32,16.32,0,0,0-20.07,0c-2.13,1.48-4,2.76-7.82,2.76s-5.69-1.28-7.82-2.76a15.63,15.63,0,0,0-10-3.45,15.62,15.62,0,0,0-10,3.45c-2.13,1.48-4,2.76-7.82,2.76V146a15.65,15.65,0,0,0,10-3.45c2.12-1.48,4-2.76,7.81-2.76s5.7,1.28,7.82,2.76a15.63,15.63,0,0,0,10,3.45,15.6,15.6,0,0,0,10-3.45c2.13-1.48,4-2.76,7.82-2.76s5.69,1.28,7.82,2.76a16.32,16.32,0,0,0,20.07,0c2.13-1.48,4-2.76,7.82-2.76S95,141,97.09,142.5a16.32,16.32,0,0,0,20.07,0c2.13-1.48,4-2.76,7.82-2.76s5.7,1.28,7.82,2.76a16.32,16.32,0,0,0,20.07,0c2.13-1.48,4-2.76,7.82-2.76s5.69,1.28,7.82,2.76a16.32,16.32,0,0,0,20.07,0c2.13-1.48,4-2.76,7.83-2.76s5.69,1.28,7.82,2.76a16.33,16.33,0,0,0,20.08,0c2.12-1.48,4-2.76,7.82-2.76s5.7,1.28,7.83,2.76A15.63,15.63,0,0,0,250,146v-3.88c-3.86,0-5.7-1.28-7.83-2.76A15.61,15.61,0,0,0,232.13,135.86Z"/><path class="cls-3" d="M232.13,151.22a15.71,15.71,0,0,0-10,3.45c-2.13,1.48-4,2.76-7.83,2.76s-5.69-1.28-7.82-2.76a16.32,16.32,0,0,0-20.07,0c-2.13,1.48-4,2.76-7.82,2.76s-5.7-1.28-7.82-2.76a16.32,16.32,0,0,0-20.07,0c-2.13,1.48-4,2.76-7.82,2.76s-5.69-1.28-7.82-2.76a16.32,16.32,0,0,0-20.07,0c-2.13,1.48-4,2.76-7.82,2.76s-5.7-1.28-7.82-2.76a16.33,16.33,0,0,0-20.08,0c-2.12,1.48-4,2.76-7.82,2.76s-5.69-1.28-7.81-2.76a16.32,16.32,0,0,0-20.07,0c-2.13,1.48-4,2.76-7.82,2.76s-5.69-1.28-7.82-2.76a15.69,15.69,0,0,0-10-3.45,15.68,15.68,0,0,0-10,3.45c-2.13,1.48-4,2.76-7.82,2.76v3.88a15.65,15.65,0,0,0,10-3.45c2.12-1.48,4-2.76,7.81-2.76s5.7,1.28,7.82,2.76a15.63,15.63,0,0,0,10,3.45,15.6,15.6,0,0,0,10-3.45c2.13-1.48,4-2.76,7.82-2.76s5.69,1.28,7.82,2.76a16.32,16.32,0,0,0,20.07,0c2.13-1.48,4-2.76,7.82-2.76s5.69,1.28,7.82,2.76a16.32,16.32,0,0,0,20.07,0c2.13-1.48,4-2.76,7.82-2.76s5.7,1.28,7.82,2.76a16.32,16.32,0,0,0,20.07,0c2.13-1.48,4-2.76,7.82-2.76s5.69,1.28,7.82,2.76a16.32,16.32,0,0,0,20.07,0c2.13-1.48,4-2.76,7.83-2.76s5.69,1.28,7.82,2.76a16.33,16.33,0,0,0,20.08,0c2.12-1.48,4-2.76,7.82-2.76s5.7,1.28,7.83,2.76a15.63,15.63,0,0,0,10,3.45v-3.88c-3.86,0-5.7-1.28-7.83-2.76A15.66,15.66,0,0,0,232.13,151.22Z"/><path class="cls-2" d="M53.56,47.56c-3.85,0-5.69,1.28-7.82,2.76a15.6,15.6,0,0,1-10,3.45h35.7a15.6,15.6,0,0,1-10-3.45C59.25,48.84,57.41,47.56,53.56,47.56Z"/><path class="cls-2" d="M232.13,32.2c-3.86,0-5.7,1.28-7.82,2.76a16.33,16.33,0,0,1-20.08,0c-2.13-1.48-4-2.76-7.82-2.76s-5.7,1.28-7.83,2.76a16.32,16.32,0,0,1-20.07,0c-2.13-1.48-4-2.76-7.82-2.76S155,33.48,152.87,35a16.32,16.32,0,0,1-20.07,0c-2.12-1.48-4-2.76-7.82-2.76s-5.69,1.28-7.82,2.76a16.32,16.32,0,0,1-20.07,0c-2.13-1.48-4-2.76-7.82-2.76S83.58,33.48,81.45,35a16.32,16.32,0,0,1-20.07,0c-2.13-1.48-4-2.76-7.82-2.76S47.87,33.48,45.74,35a15.65,15.65,0,0,1-10,3.45,15.69,15.69,0,0,1-10-3.45c-2.12-1.48-4-2.76-7.82-2.76S12.16,33.48,10,35A15.71,15.71,0,0,1,0,38.41V49.89c3.86,0,5.69-1.28,7.82-2.76a15.62,15.62,0,0,1,10-3.45,15.63,15.63,0,0,1,10,3.45c2.13,1.48,4,2.76,7.82,2.76s5.69-1.28,7.82-2.76a16.32,16.32,0,0,1,20.07,0c2.12,1.48,4,2.76,7.81,2.76s5.7-1.28,7.82-2.76a16.33,16.33,0,0,1,20.08,0c2.12,1.48,4,2.76,7.82,2.76s5.69-1.28,7.82-2.76a16.32,16.32,0,0,1,20.07,0c2.13,1.48,4,2.76,7.82,2.76s5.69-1.28,7.82-2.76a16.32,16.32,0,0,1,20.07,0c2.12,1.48,4,2.76,7.82,2.76s5.69-1.28,7.82-2.76a16.32,16.32,0,0,1,20.07,0c2.13,1.48,4,2.76,7.82,2.76s5.7-1.28,7.83-2.76a16.33,16.33,0,0,1,20.08,0c2.13,1.48,4,2.76,7.83,2.76V38.41A15.69,15.69,0,0,1,240,35C237.83,33.48,236,32.2,232.13,32.2Z"/><path class="cls-2" d="M232.13,16.83c-3.86,0-5.7,1.28-7.82,2.76a16.33,16.33,0,0,1-20.08,0c-2.13-1.48-4-2.76-7.82-2.76s-5.7,1.28-7.83,2.76a16.32,16.32,0,0,1-20.07,0c-2.13-1.48-4-2.76-7.82-2.76s-5.69,1.28-7.82,2.76a16.32,16.32,0,0,1-20.07,0c-2.12-1.48-4-2.76-7.82-2.76s-5.69,1.28-7.82,2.76a16.32,16.32,0,0,1-20.07,0c-2.13-1.48-4-2.76-7.82-2.76s-5.69,1.28-7.82,2.76a16.32,16.32,0,0,1-20.07,0c-2.13-1.48-4-2.76-7.82-2.76s-5.69,1.28-7.82,2.76a15.6,15.6,0,0,1-10,3.45,15.63,15.63,0,0,1-10-3.45c-2.12-1.48-4-2.76-7.82-2.76S12.16,18.11,10,19.59A15.65,15.65,0,0,1,0,23V34.53c3.86,0,5.69-1.28,7.82-2.76a15.62,15.62,0,0,1,10-3.46,15.63,15.63,0,0,1,10,3.46c2.13,1.48,4,2.76,7.82,2.76s5.69-1.28,7.82-2.76a16.28,16.28,0,0,1,20.07,0c2.12,1.48,4,2.76,7.81,2.76s5.7-1.28,7.82-2.76a16.3,16.3,0,0,1,20.08,0c2.12,1.48,4,2.76,7.82,2.76s5.69-1.28,7.82-2.76a16.28,16.28,0,0,1,20.07,0c2.13,1.48,4,2.76,7.82,2.76s5.69-1.28,7.82-2.76a16.28,16.28,0,0,1,20.07,0c2.12,1.48,4,2.76,7.82,2.76s5.69-1.28,7.82-2.76a16.28,16.28,0,0,1,20.07,0c2.13,1.48,4,2.76,7.82,2.76s5.7-1.28,7.83-2.76a16.3,16.3,0,0,1,20.08,0c2.13,1.48,4,2.76,7.83,2.76V23a15.63,15.63,0,0,1-10-3.45C237.83,18.11,236,16.83,232.13,16.83Z"/><path class="cls-2" d="M196.41,47.56c-3.86,0-5.7,1.28-7.83,2.76a15.6,15.6,0,0,1-10,3.45h35.71a15.6,15.6,0,0,1-10-3.45C202.1,48.84,200.26,47.56,196.41,47.56Z"/><path class="cls-2" d="M17.85,47.56c-3.85,0-5.69,1.28-7.81,2.76A15.65,15.65,0,0,1,0,53.77H35.71a15.63,15.63,0,0,1-10-3.45C23.55,48.84,21.71,47.56,17.85,47.56Z"/><path class="cls-2" d="M160.69,47.56c-3.85,0-5.69,1.28-7.82,2.76a15.6,15.6,0,0,1-10,3.45h35.71a15.63,15.63,0,0,1-10-3.45C166.38,48.84,164.55,47.56,160.69,47.56Z"/><path class="cls-2" d="M89.27,47.56c-3.85,0-5.69,1.28-7.82,2.76a15.63,15.63,0,0,1-10,3.45h35.72a15.63,15.63,0,0,1-10-3.45C95,48.84,93.13,47.56,89.27,47.56Z"/><path class="cls-2" d="M232.13,47.56c-3.86,0-5.7,1.28-7.82,2.76a15.66,15.66,0,0,1-10.05,3.45H250a15.63,15.63,0,0,1-10-3.45C237.83,48.84,236,47.56,232.13,47.56Z"/><path class="cls-2" d="M125,47.56c-3.85,0-5.69,1.28-7.82,2.76a15.6,15.6,0,0,1-10,3.45h35.71a15.65,15.65,0,0,1-10-3.45C130.68,48.84,128.84,47.56,125,47.56Z"/><path class="cls-2" d="M232.13-13.89c-3.86,0-5.7,1.28-7.82,2.76a15.72,15.72,0,0,1-10.05,3.45,15.65,15.65,0,0,1-10-3.45c-2.13-1.48-4-2.76-7.82-2.76s-5.7,1.28-7.83,2.76a15.65,15.65,0,0,1-10,3.45,15.69,15.69,0,0,1-10-3.45c-2.13-1.48-4-2.76-7.82-2.76s-5.69,1.28-7.82,2.76a15.65,15.65,0,0,1-10,3.45,15.71,15.71,0,0,1-10-3.45c-2.12-1.48-4-2.76-7.82-2.76s-5.69,1.28-7.82,2.76a15.65,15.65,0,0,1-10,3.45,15.69,15.69,0,0,1-10-3.45c-2.13-1.48-4-2.76-7.82-2.76s-5.69,1.28-7.82,2.76a15.69,15.69,0,0,1-10,3.45,15.65,15.65,0,0,1-10-3.45c-2.13-1.48-4-2.76-7.82-2.76s-5.69,1.28-7.82,2.76a15.65,15.65,0,0,1-10,3.45,15.69,15.69,0,0,1-10-3.45c-2.12-1.48-4-2.76-7.82-2.76S12.16-12.61,10-11.13A15.71,15.71,0,0,1,0-7.68V3.8C3.86,3.8,5.69,2.52,7.82,1a15.62,15.62,0,0,1,10-3.45A15.63,15.63,0,0,1,27.89,1c2.13,1.48,4,2.76,7.82,2.76S41.4,2.52,43.53,1A16.32,16.32,0,0,1,63.6,1c2.12,1.48,4,2.76,7.81,2.76S77.11,2.52,79.23,1A16.33,16.33,0,0,1,99.31,1c2.12,1.48,4,2.76,7.82,2.76S112.82,2.52,115,1A16.32,16.32,0,0,1,135,1c2.13,1.48,4,2.76,7.82,2.76s5.69-1.28,7.82-2.76a16.32,16.32,0,0,1,20.07,0c2.12,1.48,4,2.76,7.82,2.76s5.69-1.28,7.82-2.76a16.32,16.32,0,0,1,20.07,0c2.13,1.48,4,2.76,7.82,2.76S220,2.52,222.09,1a16.33,16.33,0,0,1,20.08,0c2.13,1.48,4,2.76,7.83,2.76V-7.68a15.69,15.69,0,0,1-10-3.45C237.83-12.61,236-13.89,232.13-13.89Z"/><path class="cls-2" d="M232.13,1.47c-3.86,0-5.7,1.28-7.82,2.76a15.66,15.66,0,0,1-10.05,3.45,15.6,15.6,0,0,1-10-3.45c-2.13-1.48-4-2.76-7.82-2.76s-5.7,1.28-7.83,2.76a15.6,15.6,0,0,1-10,3.45,15.63,15.63,0,0,1-10-3.45c-2.13-1.48-4-2.76-7.82-2.76S155,2.75,152.87,4.23a15.6,15.6,0,0,1-10,3.45,15.65,15.65,0,0,1-10-3.45c-2.12-1.48-4-2.76-7.82-2.76s-5.69,1.28-7.82,2.76a15.6,15.6,0,0,1-10,3.45,15.63,15.63,0,0,1-10-3.45c-2.13-1.48-4-2.76-7.82-2.76s-5.69,1.28-7.82,2.76a15.63,15.63,0,0,1-10,3.45,15.6,15.6,0,0,1-10-3.45c-2.13-1.48-4-2.76-7.82-2.76s-5.69,1.28-7.82,2.76a15.6,15.6,0,0,1-10,3.45,15.63,15.63,0,0,1-10-3.45c-2.12-1.48-4-2.76-7.82-2.76S12.16,2.75,10,4.23A15.65,15.65,0,0,1,0,7.68V19.16c3.86,0,5.69-1.28,7.82-2.76a15.68,15.68,0,0,1,10-3.45,15.69,15.69,0,0,1,10,3.45c2.13,1.48,4,2.76,7.82,2.76s5.69-1.28,7.82-2.76a16.32,16.32,0,0,1,20.07,0c2.12,1.48,4,2.76,7.81,2.76s5.7-1.28,7.82-2.76a16.33,16.33,0,0,1,20.08,0c2.12,1.48,4,2.76,7.82,2.76s5.69-1.28,7.82-2.76a16.32,16.32,0,0,1,20.07,0c2.13,1.48,4,2.76,7.82,2.76s5.69-1.28,7.82-2.76a16.32,16.32,0,0,1,20.07,0c2.12,1.48,4,2.76,7.82,2.76s5.69-1.28,7.82-2.76a16.32,16.32,0,0,1,20.07,0c2.13,1.48,4,2.76,7.82,2.76s5.7-1.28,7.83-2.76a16.33,16.33,0,0,1,20.08,0c2.13,1.48,4,2.76,7.83,2.76V7.68a15.63,15.63,0,0,1-10-3.45C237.83,2.75,236,1.47,232.13,1.47Z"/><path class="cls-3" d="M232.13-2.41a15.65,15.65,0,0,0-10,3.45c-2.13,1.48-4,2.76-7.83,2.76S208.57,2.52,206.44,1a16.32,16.32,0,0,0-20.07,0c-2.13,1.48-4,2.76-7.82,2.76s-5.7-1.28-7.82-2.76a16.32,16.32,0,0,0-20.07,0c-2.13,1.48-4,2.76-7.82,2.76S137.15,2.52,135,1A16.32,16.32,0,0,0,115,1c-2.13,1.48-4,2.76-7.82,2.76S101.43,2.52,99.31,1A16.33,16.33,0,0,0,79.23,1c-2.12,1.48-4,2.76-7.82,2.76S65.72,2.52,63.6,1A16.32,16.32,0,0,0,43.53,1c-2.13,1.48-4,2.76-7.82,2.76S30,2.52,27.89,1a15.63,15.63,0,0,0-10-3.45A15.62,15.62,0,0,0,7.82,1C5.69,2.52,3.86,3.8,0,3.8V7.68A15.65,15.65,0,0,0,10,4.23c2.12-1.48,4-2.76,7.81-2.76s5.7,1.28,7.82,2.76a15.63,15.63,0,0,0,10,3.45,15.6,15.6,0,0,0,10-3.45c2.13-1.48,4-2.76,7.82-2.76s5.69,1.28,7.82,2.76a15.6,15.6,0,0,0,10,3.45,15.63,15.63,0,0,0,10-3.45c2.13-1.48,4-2.76,7.82-2.76S95,2.75,97.09,4.23a15.63,15.63,0,0,0,10,3.45,15.6,15.6,0,0,0,10-3.45c2.13-1.48,4-2.76,7.82-2.76s5.7,1.28,7.82,2.76a15.65,15.65,0,0,0,10,3.45,15.6,15.6,0,0,0,10-3.45c2.13-1.48,4-2.76,7.82-2.76s5.69,1.28,7.82,2.76a15.63,15.63,0,0,0,10,3.45,15.6,15.6,0,0,0,10-3.45c2.13-1.48,4-2.76,7.83-2.76s5.69,1.28,7.82,2.76a15.6,15.6,0,0,0,10,3.45,15.66,15.66,0,0,0,10.05-3.45c2.12-1.48,4-2.76,7.82-2.76s5.7,1.28,7.83,2.76a15.63,15.63,0,0,0,10,3.45V3.8c-3.86,0-5.7-1.28-7.83-2.76A15.61,15.61,0,0,0,232.13-2.41Z"/><path class="cls-3" d="M232.13,13a15.71,15.71,0,0,0-10,3.45c-2.13,1.48-4,2.76-7.83,2.76s-5.69-1.28-7.82-2.76a16.32,16.32,0,0,0-20.07,0c-2.13,1.48-4,2.76-7.82,2.76s-5.7-1.28-7.82-2.76a16.32,16.32,0,0,0-20.07,0c-2.13,1.48-4,2.76-7.82,2.76s-5.69-1.28-7.82-2.76a16.32,16.32,0,0,0-20.07,0c-2.13,1.48-4,2.76-7.82,2.76s-5.7-1.28-7.82-2.76a16.33,16.33,0,0,0-20.08,0c-2.12,1.48-4,2.76-7.82,2.76s-5.69-1.28-7.81-2.76a16.32,16.32,0,0,0-20.07,0c-2.13,1.48-4,2.76-7.82,2.76S30,17.88,27.89,16.4a15.69,15.69,0,0,0-10-3.45,15.68,15.68,0,0,0-10,3.45c-2.13,1.48-4,2.76-7.82,2.76V23a15.65,15.65,0,0,0,10-3.45c2.12-1.48,4-2.76,7.81-2.76s5.7,1.28,7.82,2.76a15.63,15.63,0,0,0,10,3.45,15.6,15.6,0,0,0,10-3.45c2.13-1.48,4-2.76,7.82-2.76s5.69,1.28,7.82,2.76a16.32,16.32,0,0,0,20.07,0c2.13-1.48,4-2.76,7.82-2.76s5.69,1.28,7.82,2.76a16.32,16.32,0,0,0,20.07,0c2.13-1.48,4-2.76,7.82-2.76s5.7,1.28,7.82,2.76a16.32,16.32,0,0,0,20.07,0c2.13-1.48,4-2.76,7.82-2.76s5.69,1.28,7.82,2.76a16.32,16.32,0,0,0,20.07,0c2.13-1.48,4-2.76,7.83-2.76s5.69,1.28,7.82,2.76a16.33,16.33,0,0,0,20.08,0c2.12-1.48,4-2.76,7.82-2.76s5.7,1.28,7.83,2.76A15.63,15.63,0,0,0,250,23V19.16c-3.86,0-5.7-1.28-7.83-2.76A15.66,15.66,0,0,0,232.13,13Z"/><path class="cls-3" d="M232.13,28.31a15.65,15.65,0,0,0-10,3.46c-2.13,1.48-4,2.76-7.83,2.76s-5.69-1.28-7.82-2.76a16.28,16.28,0,0,0-20.07,0c-2.13,1.48-4,2.76-7.82,2.76s-5.7-1.28-7.82-2.76a16.28,16.28,0,0,0-20.07,0c-2.13,1.48-4,2.76-7.82,2.76s-5.69-1.28-7.82-2.76a16.28,16.28,0,0,0-20.07,0c-2.13,1.48-4,2.76-7.82,2.76s-5.7-1.28-7.82-2.76a16.3,16.3,0,0,0-20.08,0c-2.12,1.48-4,2.76-7.82,2.76s-5.69-1.28-7.81-2.76a16.28,16.28,0,0,0-20.07,0c-2.13,1.48-4,2.76-7.82,2.76S30,33.25,27.89,31.77a15.63,15.63,0,0,0-10-3.46,15.62,15.62,0,0,0-10,3.46c-2.13,1.48-4,2.76-7.82,2.76v3.88A15.71,15.71,0,0,0,10,35c2.12-1.48,4-2.76,7.81-2.76s5.7,1.28,7.82,2.76a15.69,15.69,0,0,0,10,3.45,15.65,15.65,0,0,0,10-3.45c2.13-1.48,4-2.76,7.82-2.76s5.69,1.28,7.82,2.76a16.32,16.32,0,0,0,20.07,0c2.13-1.48,4-2.76,7.82-2.76S95,33.48,97.09,35a16.32,16.32,0,0,0,20.07,0c2.13-1.48,4-2.76,7.82-2.76s5.7,1.28,7.82,2.76a16.32,16.32,0,0,0,20.07,0c2.13-1.48,4-2.76,7.82-2.76s5.69,1.28,7.82,2.76a16.32,16.32,0,0,0,20.07,0c2.13-1.48,4-2.76,7.83-2.76s5.69,1.28,7.82,2.76a16.33,16.33,0,0,0,20.08,0c2.12-1.48,4-2.76,7.82-2.76s5.7,1.28,7.83,2.76a15.69,15.69,0,0,0,10,3.45V34.53c-3.86,0-5.7-1.28-7.83-2.76A15.61,15.61,0,0,0,232.13,28.31Z"/><path class="cls-3" d="M232.13,43.68a15.65,15.65,0,0,0-10,3.45c-2.13,1.48-4,2.76-7.83,2.76s-5.69-1.28-7.82-2.76a16.32,16.32,0,0,0-20.07,0c-2.13,1.48-4,2.76-7.82,2.76s-5.7-1.28-7.82-2.76a16.32,16.32,0,0,0-20.07,0c-2.13,1.48-4,2.76-7.82,2.76s-5.69-1.28-7.82-2.76a16.32,16.32,0,0,0-20.07,0c-2.13,1.48-4,2.76-7.82,2.76s-5.7-1.28-7.82-2.76a16.33,16.33,0,0,0-20.08,0c-2.12,1.48-4,2.76-7.82,2.76s-5.69-1.28-7.81-2.76a16.32,16.32,0,0,0-20.07,0c-2.13,1.48-4,2.76-7.82,2.76S30,48.61,27.89,47.13a15.63,15.63,0,0,0-10-3.45,15.62,15.62,0,0,0-10,3.45c-2.13,1.48-4,2.76-7.82,2.76v3.88a15.65,15.65,0,0,0,10-3.45c2.12-1.48,4-2.76,7.81-2.76s5.7,1.28,7.82,2.76a15.63,15.63,0,0,0,10,3.45,15.6,15.6,0,0,0,10-3.45c2.13-1.48,4-2.76,7.82-2.76s5.69,1.28,7.82,2.76a16.32,16.32,0,0,0,20.07,0c2.13-1.48,4-2.76,7.82-2.76s5.69,1.28,7.82,2.76a16.32,16.32,0,0,0,20.07,0c2.13-1.48,4-2.76,7.82-2.76s5.7,1.28,7.82,2.76a16.32,16.32,0,0,0,20.07,0c2.13-1.48,4-2.76,7.82-2.76s5.69,1.28,7.82,2.76a16.32,16.32,0,0,0,20.07,0c2.13-1.48,4-2.76,7.83-2.76s5.69,1.28,7.82,2.76a16.33,16.33,0,0,0,20.08,0c2.12-1.48,4-2.76,7.82-2.76s5.7,1.28,7.83,2.76a15.63,15.63,0,0,0,10,3.45V49.89c-3.86,0-5.7-1.28-7.83-2.76A15.61,15.61,0,0,0,232.13,43.68Z"/></pattern></defs><g id="Capa_2" data-name="Capa 2"><g id="Encabezado"><rect class="cls-4" width="1920" height="552"/></g></g></svg>