<svg xmlns="http://www.w3.org/2000/svg" viewBox="0 0 27.81 18.42"><defs><style>.cls-1{fill:#cc1125;}.cls-2{fill:#fcfbfb;}.cls-3{fill:#022c7e;}</style></defs><g id="Capa_2" data-name="Capa 2"><g id="Encabezado"><path class="cls-1" d="M27.8,7.38v3.67H15.45c-.13,0-.16,0-.16.21v7.16H12.52c0-.07,0-.14,0-.21V11.3c0-.28,0-.25-.19-.25H0V7.38H12.35c.13,0,.17,0,.17-.22,0-1.83,0-3.67,0-5.5,0-.55,0-1.11,0-1.66h2.77V7.14c0,.26,0,.23.18.23H27.8Z"/><path class="cls-2" d="M12.52,0c0,.55,0,1.11,0,1.66,0,1.83,0,3.67,0,5.5,0,.18,0,.22-.17.22H0V6.15H6s.08,0,.11,0l0,0C4.28,4.9,2.48,3.7.68,2.52A3.71,3.71,0,0,0,0,2.09V1.41c.06,0,.1,0,.14.06l4,2.65,3,2a.39.39,0,0,0,.25.08c.5,0,1,0,1.52,0H9.2A.71.71,0,0,0,9,6L.12.08S.06.05.06,0H3.15c0,.07.06.07.1.09l7.67,5.09.67.44V0Z"/><path class="cls-2" d="M15.29,18.42V11.26c0-.17,0-.21.16-.21H27.8v1.22H21.69c0,.08.08.08.12.11l5.74,3.81c.08.05.15.13.25.13v.72l-.06,0L24.4,14.79l-3.71-2.46a.32.32,0,0,0-.19-.05H18.71s-.08,0-.11,0,.06.06.09.08l8.13,5.39c.32.22.65.41.95.65H24.65c0-.06-.06-.07-.09-.09l-8.2-5.43c-.14-.09-.14-.09-.14.11v5.2c0,.07,0,.14,0,.21Z"/><path class="cls-2" d="M0,11.05H12.32c.22,0,.19,0,.19.25v6.91c0,.07,0,.14,0,.21h-.93V13c0-.23,0-.23-.15-.13q-3.81,2.52-7.61,5a4.35,4.35,0,0,0-.68.47h-1c0-.08.1-.09.16-.13l4.88-3.24,4-2.67s.07,0,.07-.1H9.41a.53.53,0,0,0-.27.08L5.49,14.78.18,18.31s-.1,0-.12.11,0-.06,0-.11c0-.66,0-1.32,0-2,.06,0,.09,0,.13,0l5.69-3.77.29-.2v0H0Z"/><path class="cls-2" d="M27.8,7.38H15.47c-.2,0-.18,0-.18-.23V0h.92c0,.08,0,.16,0,.24,0,1.73,0,3.46,0,5.19,0,.16,0,.18.13.11l1.56-1L24.11.39A2.84,2.84,0,0,0,24.65,0h1c0,.07-.07.08-.1.1L23.93,1.19,17,5.78l-.47.33a.22.22,0,0,0,.13,0H18.4a.45.45,0,0,0,.26-.09L21,4.54,27.39.27A1,1,0,0,0,27.75,0c.08,0,.05.07.05.11v2c-.05,0-.08,0-.11.05L22.3,5.7l-.61.41v0h6.1Z"/><path class="cls-3" d="M16.21,18.42c0-.07,0-.14,0-.21V13c0-.2,0-.2.14-.11l8.2,5.43s.08,0,.09.09Z"/><path class="cls-3" d="M11.59,0V5.62l-.67-.44L3.25.09s-.08,0-.1-.09Z"/><path class="cls-3" d="M3.15,18.42A4.35,4.35,0,0,1,3.83,18q3.8-2.53,7.61-5c.15-.1.15-.1.15.13v5.39Z"/><path class="cls-3" d="M24.65,0a2.84,2.84,0,0,1-.54.39L17.9,4.5l-1.56,1c-.11.07-.13,0-.13-.11,0-1.73,0-3.46,0-5.19,0-.08,0-.16,0-.24Z"/><path class="cls-1" d="M.06,18.42c0-.08.08-.09.12-.11l5.31-3.53,3.65-2.42a.53.53,0,0,1,.27-.08h1.86c0,.07,0,.08-.07.1l-4,2.67L2.28,18.29c-.06,0-.13.05-.16.13Z"/><path class="cls-1" d="M27.75,0a1,1,0,0,1-.36.27L21,4.54,18.66,6.06a.45.45,0,0,1-.26.09H16.66a.22.22,0,0,1-.13,0L17,5.78l6.93-4.59L25.58.1s.08,0,.1-.1Z"/><path class="cls-3" d="M27.8,6.15H21.7v0l.61-.41,5.39-3.56s.06-.07.11-.05Z"/><path class="cls-3" d="M27.8,16.33c-.1,0-.17-.08-.25-.13l-5.74-3.81s-.09,0-.12-.11H27.8Z"/><path class="cls-3" d="M0,2.09a3.71,3.71,0,0,1,.68.43l5.4,3.57,0,0s-.08,0-.11,0H0Z"/><path class="cls-3" d="M0,12.27H6.1v0l-.29.2L.13,16.28s-.07.08-.13,0Z"/><path class="cls-1" d="M27.77,18.42c-.3-.24-.63-.43-.95-.65l-8.13-5.39s-.07,0-.09-.08.08,0,.11,0H20.5a.32.32,0,0,1,.19.05l3.71,2.46L27.74,17l.06,0v1.28S27.83,18.42,27.77,18.42Z"/><path class="cls-1" d="M.06,0c0,.05,0,.06.06.08L9,6a.71.71,0,0,1,.2.19H8.86c-.51,0-1,0-1.52,0a.39.39,0,0,1-.25-.08L4.14,4.12l-4-2.65S.06,1.39,0,1.41C0,1,0,.54,0,.11,0,.07,0,0,.06,0Z"/></g></g></svg>