<svg xmlns="http://www.w3.org/2000/svg" viewBox="0 0 254.34 134.56"><defs><style>.cls-1,.cls-2{fill:#fff;}.cls-2{font-size:11px;font-family:ArialMT, Arial;letter-spacing:0.3em;}</style></defs><g id="Capa_2" data-name="Capa 2"><g id="Encabezado"><path class="cls-1" d="M2.68,71.21H19.87v3.9H7.17v12H19.86V91H7.17v16.32H2.68Z"/><path class="cls-1" d="M38.5,102.46a11.58,11.58,0,0,0,6,1.88c3.31,0,4.85-1.72,4.85-3.86S48,97,44.69,95.72c-4.49-1.66-6.6-4.23-6.6-7.33,0-4.18,3.25-7.6,8.61-7.6a12.17,12.17,0,0,1,6.14,1.6l-1.13,3.43a9.5,9.5,0,0,0-5.11-1.5c-2.68,0-4.18,1.61-4.18,3.53,0,2.14,1.5,3.11,4.75,4.39,4.33,1.71,6.55,4,6.55,7.82,0,4.54-3.41,7.76-9.34,7.76a13.88,13.88,0,0,1-7-1.77Z"/><path class="cls-1" d="M76.77,106.32a16.23,16.23,0,0,1-7.17,1.5c-7.53,0-12.43-5.3-12.43-13.22s5.26-13.76,13.41-13.76a14.79,14.79,0,0,1,6.3,1.34l-1,3.64a10.22,10.22,0,0,0-5.26-1.23c-5.73,0-8.82,4.39-8.82,9.79,0,6,3.71,9.69,8.67,9.69A12.48,12.48,0,0,0,76,102.78Z"/><path class="cls-1" d="M80.32,69.28h4.54V85.44H85a8.53,8.53,0,0,1,3.25-3.31,9,9,0,0,1,4.64-1.34c3.35,0,8.72,2.14,8.72,11.08v15.41H97V92.4c0-4.17-1.5-7.71-5.78-7.71a6.57,6.57,0,0,0-6.09,4.71,5.89,5.89,0,0,0-.31,2.25v15.63H80.32Z"/><path class="cls-1" d="M117.12,107.33,108.3,71.25H113l4.13,18.25c1,4.5,2,9,2.58,12.47h.1c.57-3.58,1.65-7.86,2.84-12.52l4.64-18.2H132l4.23,18.31c1,4.28,1.91,8.56,2.43,12.36h.1c.72-4,1.7-8,2.78-12.47l4.6-18.2h4.59l-9.86,36.08h-4.69l-4.39-18.79a114.53,114.53,0,0,1-2.27-11.78h-.1a116.4,116.4,0,0,1-2.68,11.78l-5,18.79Z"/><path class="cls-1" d="M158.28,95.23c.1,6.37,4,9,8.56,9a15.87,15.87,0,0,0,6.91-1.34l.78,3.37a19.57,19.57,0,0,1-8.31,1.61c-7.69,0-12.28-5.24-12.28-13.06s4.44-14,11.71-14c8.16,0,10.32,7.44,10.32,12.2a19,19,0,0,1-.15,2.2Zm13.31-3.37c0-3-1.19-7.66-6.3-7.66-4.59,0-6.6,4.39-7,7.66Z"/><path class="cls-1" d="M183,69.32h4.54v38H183Z"/><path class="cls-1" d="M202.11,74v7.44h6.5V85h-6.5V99c0,3.21.88,5,3.4,5a9.86,9.86,0,0,0,2.64-.32l.2,3.53a10.86,10.86,0,0,1-4,.64,6.18,6.18,0,0,1-4.9-2c-1.29-1.39-1.76-3.69-1.76-6.74V85H193.8V81.42h3.87V75.21Z"/><path class="cls-1" d="M26.35,107.28V80.77h4.54v26.51Z"/><path class="cls-1" d="M28.62,61.51a5.13,5.13,0,1,0,5.3,5.12A5.21,5.21,0,0,0,28.62,61.51Zm0,7.73a2.61,2.61,0,1,1,2.69-2.61A2.66,2.66,0,0,1,28.62,69.24Z"/><path class="cls-1" d="M0,61.39S95.59-1.68,196,55L237,30.57s17.68-10,16.84,16c0,0,1.66,44.74-.82,59.4-1,5.76-7.94,11.34-16.72,6.42-6.26-3.51-11.61-8.49-21.36-16.85a.83.83,0,0,1,.77-1.46c7.4,2.36,25.12,12.68,26.07-8.81,0,0,1.4-19.39-.07-28.06-.71-4.2-5.56-11.29-16.3-6.41L195.31,64.85S101.63,13,0,61.39Z"/><path class="cls-1" d="M72.75,31.09c25.73-6.16,46.06-7.7,68.78.15a.12.12,0,0,0,.14-.18c-2.14-2.34-13.84-16.11-3-26.37,2-1.92.11-5.21-2.66-4.62C119.69,3.53,94.1,11.64,72.36,30.32A.44.44,0,0,0,72.75,31.09Z"/><text class="cls-2" transform="translate(96.05 130.98) scale(0.96 1)">CORPORACIÓN</text></g></g></svg>