<svg xmlns="http://www.w3.org/2000/svg" viewBox="0 0 503.24 114.26"><defs><style>.cls-1{font-size:16.35px;font-family:Arial-BoldMT, Arial;font-weight:700;letter-spacing:0.6em;}.cls-1,.cls-2{fill:#fff;}</style></defs><g id="Capa_2" data-name="Capa 2"><g id="Encabezado"><text class="cls-1" transform="translate(0 92.95) scale(0.96 1)">CORPORACIÓN</text><path class="cls-2" d="M251.58,71.21h17.19v3.9h-12.7v12h12.69V91H256.07v16.32h-4.49Z"/><path class="cls-2" d="M287.39,102.46a11.64,11.64,0,0,0,6,1.88c3.3,0,4.85-1.72,4.85-3.86s-1.29-3.48-4.64-4.76c-4.49-1.66-6.61-4.23-6.61-7.33,0-4.18,3.25-7.6,8.62-7.6a12.17,12.17,0,0,1,6.14,1.6l-1.14,3.43a9.47,9.47,0,0,0-5.11-1.5c-2.68,0-4.17,1.61-4.17,3.53,0,2.14,1.49,3.11,4.74,4.39,4.34,1.71,6.55,4,6.55,7.82,0,4.54-3.4,7.76-9.33,7.76a13.82,13.82,0,0,1-7-1.77Z"/><path class="cls-2" d="M325.67,106.32a16.26,16.26,0,0,1-7.17,1.5c-7.54,0-12.44-5.3-12.44-13.22s5.26-13.76,13.42-13.76a14.74,14.74,0,0,1,6.29,1.34l-1,3.64a10.25,10.25,0,0,0-5.26-1.23c-5.73,0-8.83,4.39-8.83,9.79,0,6,3.72,9.69,8.67,9.69a12.48,12.48,0,0,0,5.57-1.29Z"/><path class="cls-2" d="M329.22,69.28h4.54V85.44h.1a8.6,8.6,0,0,1,3.25-3.31,9,9,0,0,1,4.65-1.34c3.35,0,8.72,2.14,8.72,11.08v15.41h-4.55V92.4c0-4.17-1.49-7.71-5.77-7.71a6.56,6.56,0,0,0-6.09,4.71,5.89,5.89,0,0,0-.31,2.25v15.63h-4.54Z"/><path class="cls-2" d="M366,107.33l-8.82-36.08h4.75l4.13,18.25c1,4.5,2,9,2.58,12.47h.1c.57-3.58,1.65-7.86,2.84-12.52l4.64-18.2h4.7l4.23,18.31c1,4.28,1.91,8.56,2.42,12.36h.1c.73-4,1.71-8,2.79-12.47l4.59-18.2h4.59l-9.85,36.08h-4.7l-4.38-18.79a111.9,111.9,0,0,1-2.27-11.78h-.1a116.71,116.71,0,0,1-2.69,11.78l-5,18.79Z"/><path class="cls-2" d="M407.17,95.23c.11,6.37,4,9,8.57,9a15.87,15.87,0,0,0,6.91-1.34l.77,3.37a19.51,19.51,0,0,1-8.3,1.61c-7.69,0-12.28-5.24-12.28-13.06s4.44-14,11.71-14c8.15,0,10.32,7.44,10.32,12.2a16.56,16.56,0,0,1-.16,2.2Zm13.31-3.37c.06-3-1.18-7.66-6.29-7.66-4.59,0-6.61,4.39-7,7.66Z"/><path class="cls-2" d="M431.9,69.32h4.54v38H431.9Z"/><path class="cls-2" d="M451,74v7.44h6.51V85H451V99c0,3.21.88,5,3.41,5a9.77,9.77,0,0,0,2.63-.32l.21,3.53a10.88,10.88,0,0,1-4,.64,6.19,6.19,0,0,1-4.9-2c-1.29-1.39-1.75-3.69-1.75-6.74V85H442.7V81.42h3.87V75.21Z"/><path class="cls-2" d="M275.25,107.28V80.77h4.54v26.51Z"/><path class="cls-2" d="M277.51,61.51a5.13,5.13,0,1,0,5.3,5.12A5.21,5.21,0,0,0,277.51,61.51Zm0,7.73a2.61,2.61,0,1,1,2.7-2.61A2.66,2.66,0,0,1,277.51,69.24Z"/><path class="cls-2" d="M248.9,61.39s95.58-63.07,196-6.39l40.95-24.43s17.67-10,16.83,16c0,0,1.67,44.74-.81,59.4-1,5.76-7.94,11.34-16.72,6.42-6.27-3.51-11.62-8.49-21.37-16.85a.83.83,0,0,1,.77-1.46c7.4,2.36,25.12,12.68,26.08-8.81,0,0,1.4-19.39-.07-28.06-.72-4.2-5.57-11.29-16.3-6.41L444.21,64.85S350.53,13,248.9,61.39Z"/><path class="cls-2" d="M321.64,31.09c25.73-6.16,46.06-7.7,68.79.15.12,0,.22-.09.13-.18-2.13-2.34-13.83-16.11-3-26.37A2.76,2.76,0,0,0,384.93.07C368.59,3.53,343,11.64,321.25,30.32A.45.45,0,0,0,321.64,31.09Z"/></g></g></svg>