<svg xmlns="http://www.w3.org/2000/svg" viewBox="0 0 432.68 633.95">
    <defs>
        <style>
            .cls-1 {
                fill: #4070b6;
            }

            .cls-1,
            .cls-3 {
                stroke: #fff;
                stroke-miterlimit: 10;
                stroke-width: 0.53px;
            }

            .cls-2 {
                fill: none;
            }

            .cls-3 {
                fill: #5387c4;
            }
        </style>
    </defs>
    <g id="Capa_2" data-name="Capa 2">
        <g id="Encabezado">
            <path class="cls-1"
                d="M222.36,475.71A12.12,12.12,0,0,0,225,474c.86-.86,0-4,0-4l.38-7.78a12.86,12.86,0,0,0-2.11-4.32c-1.44-1.73-3.17-3.75-3.17-3.75l1.44-2.88s.19-.86,3.84,0,4.81,0,4.81,0-1.73-5.47,1.73-6.92a33.7,33.7,0,0,0,5.18-2.59s1.16,2,1.73-1.73a13.81,13.81,0,0,0,0-5.62,16.85,16.85,0,0,1,.26-2.45c.32-2.59-.26-4.32-1.41-6.91s-2.31-4-2.88-5.76-3.75-.58-1.59-4a70.3,70.3,0,0,1,4.21-5.64,12.13,12.13,0,0,1-1.47-1c-1.44-1.15-.86-.28-5.47-2.69s-6.06.39-6.06.39-6.91-.87-10.37,0,0,0,.29,1.15-1.15,2.88-1.15,2.88a27.41,27.41,0,0,0-1.73,6.05c-.58,3.46-.87,2.89-5.19,8.07a12,12,0,0,1-6.84,4.05c-.18,1.4-.35,2,.21,3.16.87,1.72-5.18,5.18-5.18,5.18L192.92,438c1.4,1,2.46,2,2.35,2.6a10.93,10.93,0,0,1-1.73,4.61c-.86,1.15-2.87,1.73-2.44,3.46s.14,1.44,1.29,2.59,7.29,1.73,7.29,1.73,4.52-3.46,2.07,3.17-3.72,8.64-2.07,10.37,2.79,1.73,5.1,3.75-.86,1.44,6.05,4l2.8,1.05,2-6.24-2,6.24,4.12,1.54Z" />
            <path class="cls-1"
                d="M277.39,496.17l-6.34,2.88a27.45,27.45,0,0,1-5.18,1.73c-3.46.87-1.73-1.44-1.44-3.17s.57-3.17.57-3.17a25.14,25.14,0,0,0,.29-6.34,16.87,16.87,0,0,0-2.88-8.07c-1.44-2.3,0-2.3-1.15-6a33,33,0,0,0-2.6-6.34c-1.44-3.17-1.15-1.72-3.17-3.74s-2-5.76-2.71-6.92,1.85-5.76,1.85-5.76,3.75-2.31,4.32-.48,4.61,3.36,4.61,3.36,7.49,1.73,11.24,0a15.85,15.85,0,0,0,2.51-1.48,2.24,2.24,0,0,1-.78-1.4c-.29-2.31-5.19-.29-7.49-3.75s-4.33-7.2-4.33-7.2l-2.59-1.73a16.34,16.34,0,0,0,0-6.91c-.86-3.17-2-1.73-2.59-2.83a2.1,2.1,0,0,0-2-.92l-1.15-1.15c-1.15-1.16,0-2.88,0-2.88a43.52,43.52,0,0,0-3.58-6.06,15.92,15.92,0,0,1-2.1-5.66c-4.19.57-2.55,1.34-5.27,1.34-2.88,0-5.48-2.59-5.48-2.59s-1.29-.58-2.56-1.32a70.3,70.3,0,0,0-4.21,5.64c-2.16,3.46,1,2.31,1.59,4s1.73,3.17,2.88,5.76,1.73,4.32,1.41,6.91a16.85,16.85,0,0,0-.26,2.45,13.81,13.81,0,0,1,0,5.62c-.57,3.75-1.73,1.73-1.73,1.73a33.7,33.7,0,0,1-5.18,2.59c-3.46,1.45-1.73,6.92-1.73,6.92s-1.16.86-4.81,0-3.84,0-3.84,0l-1.44,2.88s1.73,2,3.17,3.75a12.86,12.86,0,0,1,2.11,4.32L225,470s.86,3.17,0,4a12.12,12.12,0,0,1-2.59,1.73l-4.61,1.15-4.12-1.54-.49,1.54-.58,6.34,3.05,4a18.94,18.94,0,0,0,3.87,3.17c2,1.15,2.59,2.59,5.35,4.9s.41,4.32-.17,5.47.58,4.32,0,6.63c0,0,4.9,1.73,5.77,1.15s2.3,6.34,2.73,10.66,9.37.58,12.82.29,0,1.44,0,7.78,5.77-1.73,8.36-5.47,2-1.73,12.68-2.6c2.51-.2,3.91-.31,4.6-.35A31.46,31.46,0,0,0,280,510c4.32-6.63-1.44-2.88,0-4.9s3.45-2.59,4.32-4.32a11,11,0,0,1,2.24-2.45l-2.24-3Z" />
            <path class="cls-1"
                d="M206.22,424.42c4.32-5.18,4.61-4.61,5.19-8.07a27.41,27.41,0,0,1,1.73-6.05s1.44-1.73,1.15-2.88-3.75-.29-.29-1.15,10.37,0,10.37,0,1.44-2.79,6.06-.39,4,1.54,5.47,2.69a12.13,12.13,0,0,0,1.47,1c2.43-3,4.87-5.88,4.87-5.88s-2.44,2.84-4.87,5.88c1.27.74,2.56,1.32,2.56,1.32s2.6,2.59,5.48,2.59c2.72,0,1.08-.77,5.27-1.34A36.6,36.6,0,0,1,250,406a36.6,36.6,0,0,0,.66,6.15l.78-.1c5.19-.57,2,1.15,5.19-.57s3.45-.42,6.05-6.55a12.82,12.82,0,0,0,0-10.74L261,392.65a11.45,11.45,0,0,0,2.88-1.94,58.89,58.89,0,0,0,4.32-4.61,20.06,20.06,0,0,0,.82-3.54,65.76,65.76,0,0,1-3.41-5.68v-4.76l-4.32-6.05H256.5L253,372.56h-6.91l-4.32.43H234s-3.11-2.6-2.1-5l-1.79-.07c-6.92-.29-3.75-1.44-13.8-4.33s-1.47,3.17-7,2-4.32-.59-5.76,0a58.91,58.91,0,0,1-5.77,1.52,10.78,10.78,0,0,1-3.74.11c-1.15-.38-3.17.38-5.19.09s-3.46,0-4.61,2.59-5.57,0-5.57,0H175.1a27.89,27.89,0,0,1-1.44,5.77c-.56,1.54-3.51,1.58-6.38,1.21a27.64,27.64,0,0,1,1.19,5.41l4,4.92a4.06,4.06,0,0,1,1.73,3.15c0,2,3.17,3.75,3.17,3.75s2.88-2.88,1.15,2,3.17,10.09,5.47,10.09,7.5-1.15,10.09,1.73l2.59,2.88v1.44s-2,1.15,0,5.47,2.88,3.46,2.88,7.5a21.71,21.71,0,0,1-.21,3.18A12,12,0,0,0,206.22,424.42Z" />
            <path class="cls-1"
                d="M173.66,375.73A27.89,27.89,0,0,0,175.1,370h3.65s4.42,2.6,5.57,0,2.6-2.88,4.61-2.59,4-.47,5.19-.09a10.78,10.78,0,0,0,3.74-.11,58.91,58.91,0,0,0,5.77-1.52c1.44-.59.29-1.15,5.76,0s-3.1-4.91,7-2,6.88,4,13.8,4.33l1.79.07a4.11,4.11,0,0,1,2.1-1.95c5.18-2.59,8.64-3.89,9.07-7.34s-3.45-6.06-3.45-6.06-2.6-.86-2.6-6.05v-9.51a46,46,0,0,1-1.29-6.05c0-.73-1.82-2.31-3.78-4.16-1.83,1.75-3.75,3.45-4.44,3.59a90.22,90.22,0,0,0-8.93,1.44c-5.19,1.15-4.9,0-4.9,0s-2.88,1.44-4.61,2.16-6,0-6,0h-5.76s-6.92,1.58-8.36,5.33.87,4.9,1.44,6.05,0,4.32-3.45,5.76-2.31.58-4,1.16-2.59-.29-4.32-2.58-.87-.59-3.17-1.75-2-.28-4.9-.57a35.18,35.18,0,0,0-6.91.29,28.41,28.41,0,0,1-3.81,4.5l3.52,9.61s-1.44,3.75,0,6.34.29-.28,1.44,2.6.57.86,2,4.61c.2.51.38,1,.54,1.5C170.15,377.31,173.1,377.27,173.66,375.73Z" />
            <path class="cls-1"
                d="M230.14,246.92c-4.61,0,0,13.26,0,13.26l-5.77,9.22-4,.58s-2.88.57-4,1.73a36.89,36.89,0,0,1-5.22,3.45h-3.46l-4.47-.57-3,6.91s3.46,5.19-.58,6.34S195,285,195,285s-5.76,6.92-8.06,9.22a2.21,2.21,0,0,1-.5.39c-.21,2.92.5,5.27.5,6.67,0,3,1.29,3,0,4.75s4.32,6.49,5.61,11.06,3.46,1.91,3.61,2.34,6.33-2.34,6.33-2.34,6.06-4.57,8.22-6.48,5.65-12.36,5.65-12.36l7.31-6,9.51,2.46a15.89,15.89,0,0,1-4.32,4.89c-2.59,1.73-.43,2.59-1.74,4.32s.44,7.35.88,11.24-2.17,3.89,0,7.35a25.58,25.58,0,0,0,4,4.48c2-1.93,3.92-3.91,3.92-3.91s-1.9,2-3.92,3.91c2,1.85,3.78,3.43,3.78,4.16a46,46,0,0,0,1.29,6.05v9.51c0,5.19,2.6,6.05,2.6,6.05s3.89,2.6,3.45,6.06-3.89,4.75-9.07,7.34a4.11,4.11,0,0,0-2.1,1.95l5.12.21,5.19-.28-5.19.28-5.12-.21c-1,2.37,2.1,5,2.1,5h7.78l4.32-.43H253l3.46-6.49h4.76l4.32,6.05v4.76a65.76,65.76,0,0,0,3.41,5.68c.88-4.76,2.06-12.57,2.06-12.57s-1.18,7.81-2.06,12.57a5.64,5.64,0,0,0,1.34,1.48c1.3.67,3.61-2.86,3.61-2.86s6.77-.84,8.06,0,3.89,3.05,3.89,3.05,3,1.72,4.33,0,2.59,3,2.59,3a10.41,10.41,0,0,0,7.78-3c1.68-1.69,6.13-2.45,10.25-2.79.2-.79.4-1.65.55-2.4a42.3,42.3,0,0,0,.87-6.92c0-1.73-3-6.05,1.3-4.32s5.18,5.19,7.34,4.32a102.35,102.35,0,0,0,10.38-4.72,49.92,49.92,0,0,0,4.32-3.06,10.43,10.43,0,0,1,4.32-3c2.59-.87,2.05,2.16,5.78,0s6.54-3.46,6.54-3.46,1.08-2.16,1.94-4.32,1.73-5.19,1.73-5.19l2.68-4.75h2.51l7.44-3.64a28.19,28.19,0,0,1,.34-3.24c.86-4.76,1.3-13.83,1.3-13.83s-19.89,19.45-29.4,20.31-25.06,3.89-25.06,1.3-3.46-15.56-3.46-15.56a23.43,23.43,0,0,0-15.13-6.49c-9.51-.43-16-.86-12.53-9.94s-3.46-11.67-6.05-17.72-5.19-7.35-6.92-9.07-5.62-3-5.19-6.06-2.59-7.78-6.48-13.39-8.64-4.33-6-9.94a3.58,3.58,0,0,1,1-1.33,16.23,16.23,0,0,1-5.17-2.89C245.55,247.9,234.75,246.92,230.14,246.92Z" />
            <path class="cls-1"
                d="M302.46,488.68c.87-2,8.93-4.61,8.93-4.61l2.89-9.51a54.33,54.33,0,0,0,0-6.92c-.29-2-1.45-1.44-3.46-2.3s-5.48-.87-10.66-5.76-19.31-5.48-19.31-5.48a7.78,7.78,0,0,1-3.54-1.48,15.85,15.85,0,0,1-2.51,1.48c-3.75,1.73-11.24,0-11.24,0s-4-1.54-4.61-3.36-4.32.48-4.32.48-2.56,4.61-1.85,5.76.7,4.9,2.71,6.92,1.73.57,3.17,3.74a33,33,0,0,1,2.6,6.34c1.15,3.75-.29,3.75,1.15,6a16.87,16.87,0,0,1,2.88,8.07,25.14,25.14,0,0,1-.29,6.34s-.29,1.44-.57,3.17-2,4,1.44,3.17a27.45,27.45,0,0,0,5.18-1.73l6.34-2.88,6.92-.86,2.24,3c1.84-1.65,4.1-3.31,4.1-3.31h9.17c0-.43.05-.91.05-1.44C299.87,489.26,301.6,490.7,302.46,488.68Z" />
            <path class="cls-1"
                d="M356.78,442.79s-9.19-.65-11.08-2.38a106,106,0,0,0-8.81-6.05s-6.48,1.73-9.07,0-1.73-2.16-3.89-2.16-5.19-2.59-5.19-2.59v-6.92s1.3-2.59,0-3.89a53,53,0,0,0-6.05-4.32c-1.3-.86-3.89-3-4.75-4.75s-6.05-3.46-3-10.38,2.59-3,3.89-9.07l1.3-6s.36-1.29.74-2.79c-4.12.34-8.57,1.1-10.25,2.79a10.41,10.41,0,0,1-7.78,3s-1.3-4.75-2.59-3-4.33,0-4.33,0-2.59-2.2-3.89-3.05-8.06,0-8.06,0-2.31,3.53-3.61,2.86a5.64,5.64,0,0,1-1.34-1.48,20.06,20.06,0,0,1-.82,3.54,58.89,58.89,0,0,1-4.32,4.61,11.45,11.45,0,0,1-2.88,1.94l1.73,1.52a12.82,12.82,0,0,1,0,10.74c-2.6,6.13-2.88,4.82-6.05,6.55s0,0-5.19.57l-.78.1a15.92,15.92,0,0,0,2.1,5.66,43.52,43.52,0,0,1,3.58,6.06s-1.15,1.72,0,2.88l1.15,1.15a2.1,2.1,0,0,1,2,.92c.57,1.1,1.73-.34,2.59,2.83a16.34,16.34,0,0,1,0,6.91l2.59,1.73s2,3.75,4.33,7.2,7.2,1.44,7.49,3.75a2.24,2.24,0,0,0,.78,1.4c2.77-2,5.11-4.67,5.56-6-.45,1.34-2.79,4.05-5.56,6a7.78,7.78,0,0,0,3.54,1.48s14.12.58,19.31,5.48,8.64,4.89,10.66,5.76,3.17.29,3.46,2.3a54.33,54.33,0,0,1,0,6.92l-2.89,9.51s-8.06,2.59-8.93,4.61-2.59.58-2.59,4.9c0,.53,0,1-.05,1.44h0c-.2,3.09-1,3.85.05,4.61s-3.46-.87,1.15.86,3.46-.86,7.49,0c3.53.76,5.49-.2,5.84.3,0-1.28.06-4.91.06-4.91l4.76,4a13.54,13.54,0,0,1,0,3.74,5.72,5.72,0,0,0,2.89,5.19c1.44.58,6.91,0,6.91,0a24.09,24.09,0,0,1,3.17.26,34.94,34.94,0,0,0,6.34,0s.86.6,2.59,2-.86-2.3,1.73,1.44c1.74,2.52,2.71,5.41,4.46,7.31l4.11-4.28s-7.13-7.35-5.4-10.37l1.73-3-2-3.89v-3.89l3.3-2.16s1-.43,2.24-3.46,2.94-4.75,2.94-6.05,3-1.29,2.6-5.18-3.46-4.76-1.73-9.08,1.29-2.59,4.32-6.48l3-3.89s-3-.87,0-2.6a21.55,21.55,0,0,0,5.18-4.32l3.89-7.78L365,439.12Z" />
            <path class="cls-1"
                d="M358.59,343.6l-2.68,4.75s-.86,3-1.73,5.19-1.94,4.32-1.94,4.32-2.81,1.3-6.54,3.46-3.19-.87-5.78,0a10.43,10.43,0,0,0-4.32,3,49.92,49.92,0,0,1-4.32,3.06,102.35,102.35,0,0,1-10.38,4.72c-2.16.87-3-2.59-7.34-4.32s-1.3,2.59-1.3,4.32a42.3,42.3,0,0,1-.87,6.92c-.15.75-.35,1.61-.55,2.4,4.35-.35,8.33-.24,8.33-.24s-4-.11-8.33.24c-.38,1.5-.74,2.79-.74,2.79l-1.3,6c-1.3,6.05-.86,2.16-3.89,9.07s2.16,8.65,3,10.38,3.45,3.89,4.75,4.75a53,53,0,0,1,6.05,4.32c1.3,1.3,0,3.89,0,3.89v6.92s3,2.59,5.19,2.59,1.29.43,3.89,2.16,9.07,0,9.07,0a106,106,0,0,1,8.81,6.05c1.89,1.73,11.08,2.38,11.08,2.38l8.21-3.67,6.48,4.32s-.43-6.92,0-9.08c-.43,2.16,0,9.08,0,9.08l9.08,4.75,13.4,3s8.21-3,13.83-5.62c4.16-1.92,17.82-7.17,24.61-9.75,0-.2,0-.4,0-.59,0-9.51-7.78-24.63-7.78-24.63l-9.08-13.83s-17.72-18.59-19.88-20.32-12.11,1.3-16.43,2.6-10.8,1.29-10.8-10.81c0-10-.3-21.86.09-28.31l-7.44,3.64Z" />
            <path class="cls-2" d="M271.05,519.22s.18-.1.49-.3l-3.08.3Z" />
            <path class="cls-1"
                d="M163.58,347.78a35.18,35.18,0,0,1,6.91-.29c2.88.29,2.59-.58,4.9.57s1.44-.53,3.17,1.75,2.59,3.15,4.32,2.58.58.28,4-1.16,4-4.61,3.45-5.76-2.88-2.3-1.44-6.05,8.36-5.33,8.36-5.33h5.76s4.32.72,6,0,4.61-2.16,4.61-2.16-.29,1.15,4.9,0a90.22,90.22,0,0,1,8.93-1.44c.69-.14,2.61-1.84,4.44-3.59a25.58,25.58,0,0,1-4-4.48c-2.17-3.46.43-3.46,0-7.35s-2.18-9.51-.88-11.24-.85-2.59,1.74-4.32a15.89,15.89,0,0,0,4.32-4.89l-9.51-2.46-7.31,6s-3.49,10.45-5.65,12.36-8.22,6.48-8.22,6.48-6.19,2.78-6.33,2.34-2.31,2.24-3.61-2.34-6.91-9.33-5.61-11.06,0-1.72,0-4.75c0-1.4-.71-3.75-.5-6.67-.2.09-.34.05-.42-.09-1.23.36-3.37.83-4.27.14-1.3-1-5.19,0-5.19,0v-2.31s0-4-5.18-7.06,0,7.06,0,7.06l-2.17-.58a15.62,15.62,0,0,1-8.64,0,8.89,8.89,0,0,1-4.63-3.31h0c-1.32,1.45-2.14,3.16-4.73,1.72s0,0-4.62-1.44c-2-.64-4.54-.1-6.74.69.58.63.7.68,2.13,3.34,2,3.75,1.45,2.3,2.6,5.19s-.58.86,1.73,4.61-.87,4.9,4.61,5.76,5.47,1.66,6.62,2.27a9.24,9.24,0,0,1,2.31,2.05s-6.92,4-7.78,10.09.86,4.9-1.73,7.2l-2.59,2.31,1.73,4a14.34,14.34,0,0,0,2,4.32c1.44,2,.58-.57,1.44,2s0,3.46-.86,5.76c0,.06-.05.11-.07.16a11.29,11.29,0,0,1,2.28,2.15c.67,1.15,3.26,1.73,3.55,2.3s-2.3,2,.29.58a9.27,9.27,0,0,0,1.67-1.26l-2-5.37,2,5.37A28.41,28.41,0,0,0,163.58,347.78Z" />
            <path class="cls-2" d="M314.4,501.1a.42.42,0,0,0,0-.31C314.36,501.2,314.37,501.37,314.4,501.1Z" />
            <path class="cls-2" d="M186.92,294.18l-.49.16c0,.08,0,.15,0,.23A2.21,2.21,0,0,0,186.92,294.18Z" />
            <path class="cls-1"
                d="M160.55,291.73a15.62,15.62,0,0,0,8.64,0l2.17.58s-5.19-10.09,0-7.06,5.18,7.06,5.18,7.06v2.31s3.89-1,5.19,0c.9.69,3,.22,4.27-.14-.5-.88.92-5.49.92-5.49l3.45-6.91,1.16-7.49a92.52,92.52,0,0,0-4.61-10.38c-3.46-6.91-7.5-23.62-7.5-27.91s2.88-5.51,4.61-7.24,8.65.58,9.8,5.19,6.92,0,6.92,0,1.15-9.8,2.3-16.72-5.19-9.22-11-12.82-10.37.72-11.52,0-8.65-5-13.26-2.16-7.49,2.88-9.22,0a37.76,37.76,0,0,0-8.07-9.8c-4-3.45-5.76,2.31-9.22,0-3.14-2.09-10.66-8.92-12-10.17-1.06,2.46-1.94,4.91-1.94,6.28,0,3.46,2.16,0,0,3.46s-8.22,3-3.46,6.05S137.21,204,140.24,207a12.23,12.23,0,0,1,3.45,6.48s-.43,4.32-2.16,6.92a12.65,12.65,0,0,1-4.32,3.89,12.59,12.59,0,0,0-4.56,0,19.15,19.15,0,0,1-5.38,0l-2.59,9.5s-1.88.28-.75,2.53a16.74,16.74,0,0,1,6.22,1.36,16.74,16.74,0,0,0-6.22-1.36,10.67,10.67,0,0,0,1.61,2.23c3.89,4.32-.43,8.21,2.16,12.1s7.78,2.59,7.35,8.64A26.9,26.9,0,0,0,137.21,271l2.59,3.89h3.89c1.73,0,6.92-2.59,7.78,0s3.46,7.78,3.46,7.78h-2.16a21.17,21.17,0,0,0,3.15,5.77,10,10,0,0,0,1.89-3.75,10,10,0,0,1-1.89,3.75A8.89,8.89,0,0,0,160.55,291.73Z" />
            <path class="cls-2"
                d="M186.42,294.57c0-.08,0-.15,0-.23l-.43.14C186.08,294.62,186.22,294.66,186.42,294.57Z" />
            <path class="cls-2" d="M271.62,518.87l-.08,0C272.2,518.85,272.48,518.81,271.62,518.87Z" />
            <path class="cls-1"
                d="M217.75,516.05c5.18-6,6.34-6.34,6.91-8.64L214.58,504l10.08,3.46c.58-2.31-.57-5.48,0-6.63s2.93-3.17.17-5.47-3.34-3.75-5.35-4.9a18.94,18.94,0,0,1-3.87-3.17l-3.05-4,.58-6.34.49-1.54-2.8-1.05c-6.91-2.59-3.74-2-6.05-4s-3.46-2-5.1-3.75-.37-3.74,2.07-10.37-2.07-3.17-2.07-3.17-6.14-.58-7.29-1.73-.86-.86-1.29-2.59,1.58-2.31,2.44-3.46a10.93,10.93,0,0,0,1.73-4.61c.11-.62-1-1.6-2.35-2.6a44.47,44.47,0,0,1-6,4c-2,.86-8.36,1.73-10.38,3.17-.91.65-3.48,2.31-6.1,4a105.59,105.59,0,0,0,6.1,9l2.16,2.59s-4.75,19.45.44,29,19,16.86,22,22c2.66,4.55,3.32,7.78,8.42,12.89C212.1,522.2,215.2,519,217.75,516.05Z" />
            <path class="cls-1"
                d="M331.28,573.54v-2.88s.86-1.44,5.18-5.77L346.4,555H352v-10.8l.79-.95c-2-3.29-4-7.06-4.25-9-.43-3.89.87-5.19,0-7.35s-2.59-5.62-2.59-5.62l1.29-1.34c-1.75-1.9-2.72-4.79-4.46-7.31-2.59-3.74,0,0-1.73-1.44s-2.59-2-2.59-2a34.94,34.94,0,0,1-6.34,0,24.09,24.09,0,0,0-3.17-.26s-5.47.58-6.91,0a5.72,5.72,0,0,1-2.89-5.19,13.54,13.54,0,0,0,0-3.74l-4.76-4s-.08,3.63-.06,4.91a.42.42,0,0,1,0,.31c0,.27,0,.1,0-.31-.35-.5-2.31.46-5.84-.3-4-.86-2.88,1.73-7.49,0s0,0-1.15-.86-.25-1.52-.05-4.61h-9.17s-2.26,1.66-4.1,3.31l3.52,4.76,4.9,5.47-4.9-5.47-3.52-4.76a11,11,0,0,0-2.24,2.45c-.87,1.73-2.88,2.31-4.32,4.32s4.32-1.73,0,4.9a31.46,31.46,0,0,1-8.37,8.87c.86-.06.58,0-.08,0-.31.2-.49.3-.49.3h-2.59l3.08-.3.08,0c-.69,0-2.09.15-4.6.35-10.66.87-10.09-1.15-12.68,2.6S246,533.63,246,527.29s3.46-8.07,0-7.78-12.39,4-12.82-.29-1.87-11.24-2.73-10.66-5.77-1.15-5.77-1.15c-.57,2.3-1.73,2.59-6.91,8.64-2.55,3-5.65,6.15-8.15,8.61.71.71,1.49,1.45,2.38,2.23,7.35,6.49,24.64,14.27,31.12,17.72s13,9.95,13,9.95l10.37,8.21s18.59,3.89,23.78,6.48,18.15,10.37,22,13.4a36,36,0,0,0,8.64,4.75s3,1.32,6.24,2.78a53.16,53.16,0,0,1,4.14-7.57C333.87,579.16,331.28,573.54,331.28,573.54Z" />
            <path class="cls-3"
                d="M186.92,442a44.47,44.47,0,0,0,6-4,59.18,59.18,0,0,0-6-3.6,59.18,59.18,0,0,1,6,3.6l1.49-1.15s6.05-3.46,5.18-5.18c-.56-1.12-.39-1.76-.21-3.16a13.42,13.42,0,0,1-4.11.27,13.42,13.42,0,0,0,4.11-.27,21.71,21.71,0,0,0,.21-3.18c0-4-.86-3.17-2.88-7.5s0-5.47,0-5.47v-1.44L194.12,408c-2.59-2.88-7.78-1.73-10.09-1.73s-7.2-5.19-5.47-10.09-1.15-2-1.15-2-3.17-1.73-3.17-3.75a4.06,4.06,0,0,0-1.73-3.15l-4-4.92a27.64,27.64,0,0,0-1.19-5.41,47.44,47.44,0,0,1-6-1.21,47.44,47.44,0,0,0,6,1.21c-.16-.48-.34-1-.54-1.5-1.44-3.75-.86-1.73-2-4.61s0,0-1.44-2.6,0-6.34,0-6.34l-3.52-9.61a9.27,9.27,0,0,1-1.67,1.26c-2.59,1.44,0,0-.29-.58s-2.88-1.15-3.55-2.3a11.29,11.29,0,0,0-2.28-2.15c-1,2.2-4.25,3.3-4.25,3.3s.86-2-1.44,1.44-2.31,3.75-3.46,5.19-1.44-.58-3.46,2.3-3.46,5.19-5.19,4.61-3.74,2-4-2a7.49,7.49,0,0,0-3.17-5.77l-1.44-1.73,1.15-5.47-3.6,3.74s-2.49,6.48-4,7.85c5.33,6.71,11.13,15.57,10,21.44-1.73,8.64,4.32,4.75,8.64,7.78S154.07,420.57,161,433.1c3.42,6.2,6.73,11.75,9.46,16.1,2.62-1.72,5.19-3.38,6.1-4C178.56,443.73,184.9,442.86,186.92,442Z" />
            <path class="cls-1"
                d="M421.18,463.36s10.79-17.85,11.21-27.51c-6.79,2.58-20.45,7.83-24.61,9.75-5.62,2.59-13.83,5.62-13.83,5.62l-13.4-3-9.08-4.75-3.89,7.78a21.55,21.55,0,0,1-5.18,4.32c-3,1.73,0,2.6,0,2.6l-3,3.89c-3,3.89-2.59,2.16-4.32,6.48s1.29,5.19,1.73,9.08-2.6,3.89-2.6,5.18-1.73,3-2.94,6.05-2.24,3.46-2.24,3.46l-3.3,2.16v3.89l2,3.89-1.73,3c-1.73,3,5.4,10.37,5.4,10.37l-4.11,4.28a5.93,5.93,0,0,0,3.32,1.92,5.93,5.93,0,0,1-3.32-1.92L346,521.24s1.73,3.46,2.59,5.62-.43,3.46,0,7.35c.22,1.93,2.26,5.7,4.25,9l1.37-1.65s5.62-1.29,7.35,0-4.32-5.62,1.73,1.3,8.21,8.21,8.21,10.81,3.46,7.78,3.46,7.78l5.62,4.75-6.46,7.07a36.67,36.67,0,0,1,4.73,5c3,3.89,5.19,5.19,7.35,6.05s5.18.83,7.78,2.16a17.37,17.37,0,0,0,2.83,1c2.15-2.43,16.7-4.57,18.35-8.27,1.73-3.89,0-9.94,0-9.94s1.53-6.48.76-8.21-12-9.51-12-9.51l-15.13-8.21,1.73-7.35s-5.19-2.16-2.59-7.78,15.56-.86,17.72,2.59,6.05,0,6.05,0,.43-17.72.43-20.74,4-12.1,4-12.1,3.34-4.76,4.2-6.49,3.89-3.46,3.89-5.18-4.32-12.54-4.32-12.54Z" />
            <path class="cls-3"
                d="M126.69,350.37l-1.15,5.47,1.44,1.73a7.49,7.49,0,0,1,3.17,5.77c.29,4,2.31,1.44,4,2s3.17-1.73,5.19-4.61,2.31-.86,3.46-2.3,1.15-1.73,3.46-5.19,1.44-1.44,1.44-1.44,3.28-1.1,4.25-3.3c-1.89-1.46-4.43-3-5.69-3,1.26,0,3.8,1.58,5.69,3,0-.05.05-.1.07-.16.86-2.3,1.73-3.17.86-5.76s0,0-1.44-2a14.34,14.34,0,0,1-2-4.32l-1.73-4,2.59-2.31c2.59-2.3.87-1.15,1.73-7.2s7.78-10.09,7.78-10.09a9.24,9.24,0,0,0-2.31-2.05c-1.15-.61-1.15-1.41-6.62-2.27s-2.31-2-4.61-5.76-.58-1.73-1.73-4.61-.58-1.44-2.6-5.19c-1.43-2.66-1.55-2.71-2.13-3.34a28.65,28.65,0,0,0-5.07,2.48,28.65,28.65,0,0,1,5.07-2.48c-.23-.25-.53-.6-1-1.27-1.72-2.31-1.15-.87-2.88-3.17s-.86-2-2-3.46a2.82,2.82,0,0,1,0-3.17,35.37,35.37,0,0,0-2-4.32c-1.15-2-1.73-.86-1.73-.86l-3.75-1.73h-5.68s-.65,2-.08,2.88-2.3,2.3-2.3,2.3-1.73,2-2.88,3.46a57.24,57.24,0,0,1-4.33,4.61,2.45,2.45,0,0,0,0,3.75s-1.73,2-2.59,3.17a10.22,10.22,0,0,1-3.46,3c-1.44.73-2,1.87-4,2.15a32,32,0,0,0-4.61,1.16s1.15,2.59,0,8.64c-.49,2.56-2.37,4.83-4.38,6.59,3.75,5.18,15.76,22.07,15.76,25.72,0,4.32,0,10.37,4.75,15.56,1.53,1.66,4,4.35,6.47,7.52,1.56-1.37,4-7.85,4-7.85Z" />
            <path class="cls-3"
                d="M386.17,584.34c-2.16-.86-4.32-2.16-7.35-6.05a36.67,36.67,0,0,0-4.73-5l-2.62,2.87,2.62-2.87c-.4-.4-.82-.86-1.32-1.45-2.16-2.59-6.48,0-6.48,0s-6.06,6.05-8.22,7.35-2.16,2.59-3,3.89-3.89,5.18-3.89,5.18-3,7.35-8.21,11.24a32.52,32.52,0,0,0-6.08,6.92c0,.82,0,1.33,0,1.33s18.59,11.67,23.78,17.29,13,8.64,13,8.64l12.11-6.48L396.11,612v-6l3.89-6v-6.48s-4.32-3-3.46-5.62a1.14,1.14,0,0,1,.24-.38,17.37,17.37,0,0,1-2.83-1C391.35,585.17,388.33,585.21,386.17,584.34Z" />
            <path class="cls-1"
                d="M343,599.47c5.18-3.89,8.21-11.24,8.21-11.24s3-3.89,3.89-5.18.86-2.6,3-3.89,8.22-7.35,8.22-7.35,4.32-2.59,6.48,0c.5.59.92,1.05,1.32,1.45l6.46-7.07-5.62-4.75s-3.46-5.19-3.46-7.78-2.16-3.89-8.21-10.81,0,0-1.73-1.3-7.35,0-7.35,0l-1.37,1.65c2,3.31,4,6.13,4,6.13s-2-2.82-4-6.13l-.79.95V555H346.4l-9.94,9.94c-4.32,4.33-5.18,5.77-5.18,5.77v2.88s2.59,5.62,0,9.07a53.16,53.16,0,0,0-4.14,7.57c2.62,1.2,5.37,2.5,6.73,3.28,2.42,1.38,2.9,9.66,3,12.93A32.52,32.52,0,0,1,343,599.47Z" />
            <path class="cls-1"
                d="M96.44,306.57c1.15-6.05,0-8.64,0-8.64a32,32,0,0,1,4.61-1.16c2-.28,2.59-1.42,4-2.15a10.22,10.22,0,0,0,3.46-3c.86-1.16,2.59-3.17,2.59-3.17a2.45,2.45,0,0,1,0-3.75,57.24,57.24,0,0,0,4.33-4.61c1.15-1.44,2.88-3.46,2.88-3.46s2.88-1.44,2.3-2.3.08-2.88.08-2.88h5.68l3.75,1.73s.58-1.16,1.73.86a35.37,35.37,0,0,1,2,4.32,2.82,2.82,0,0,0,0,3.17c1.15,1.44.28,1.15,2,3.46s1.16.86,2.88,3.17c.51.67.81,1,1,1.27,2.2-.79,4.72-1.33,6.74-.69,4.62,1.44,2,0,4.62,1.44s3.41-.27,4.73-1.72h0a21.17,21.17,0,0,1-3.15-5.77h2.16s-2.59-5.18-3.46-7.78-6.05,0-7.78,0H139.8L137.21,271a26.9,26.9,0,0,1-2.16-11.67c.43-6.05-4.76-4.75-7.35-8.64s1.73-7.78-2.16-12.1a10.67,10.67,0,0,1-1.61-2.23,40.26,40.26,0,0,0-7.24.35c0,.74-.08,1.3-.08,1.3L123,251l-4.61,1.44s2.59,7.49-2.6,7.78-6.91-.58-8.64,0l-1.73.58h-2l-6-2.89s-4.61-1.72-5.76-1.72-2.88.28-6.34,3.45a4.69,4.69,0,0,1-6.63,0v-3.45s0-.58-2.3-3.46-4.9-5.77-4.9-5.77-3.46,1.16-2.31-3.17,1.73-7.2,1.73-7.2c-2.88,0-2.88.58-5.06,1.15s-6.18,5.48-6.18,5.48l-4.28,2.93c5.64,8.72,12.49,19.45,15.81,26.64q7.78,16.86,10.37,22c1.73,3.46,9.51,16.86,9.51,16.86l1.1,1.51C94.07,311.4,96,309.13,96.44,306.57Z" />
            <path class="cls-1"
                d="M69.35,177.48c.29.87.87,2.31,1.44,3.75s-1.73,4.61-1.73,4.61A36,36,0,0,0,67.91,193c-.29,4.26,1.15,3.24,1.15,3.24v6.34a14.25,14.25,0,0,0,5.19.86L73.39,210l-2.89,1.15c-2.88,1.16-1.44,1.16-3.74,2.89a1.77,1.77,0,0,0,0,3.17L68.83,223s6,2.88,8.59,5.76-3.75,3.17-5.47,4.61a3,3,0,0,0-1.16,3.17s-.57,2.88-1.73,7.2,2.31,3.17,2.31,3.17,2.59,2.89,4.9,5.77,2.3,3.46,2.3,3.46v3.45a4.69,4.69,0,0,0,6.63,0c3.46-3.17,5.19-3.45,6.34-3.45s5.76,1.72,5.76,1.72l6,2.89h2l1.73-.58c1.73-.58,3.46.29,8.64,0s2.6-7.78,2.6-7.78L123,251l-6.34-13s0-.56.08-1.3a51,51,0,0,0-5.56,1,51,51,0,0,1,5.56-1,15.25,15.25,0,0,0-.08-3.31c-.29-.86-.29-2.3-1.44-8.07s-8.65-8.64-8.65-8.64-2.59-3.46-5.47-7.2a32.07,32.07,0,0,0-4.9-5.48c-2.59-2.59-3.17-2-3.75-3.46s-3.74-3-3.74-3L89.81,193l6.34-6.84-2-4.61s-.86-2-1.73-4.61.29-1.73,1.16-1.88,2.59-3.6,2.59-3.6l-2.59-5.19v-4.32c0-1.27-1-3.2-2-5-.41,1.53-1.26,2.13-4,2.13-4.75,0-1.29,10.8-6.91,11.67a10.63,10.63,0,0,1-6.48-1.11c-1.92,2.25-4.52,4.77-5,5.39C68.2,176,69.06,176.62,69.35,177.48Z" />
            <path class="cls-1"
                d="M93.56,166.24l2.59,5.19s-1.73,3.46-2.59,3.6-2-.72-1.16,1.88,1.73,4.61,1.73,4.61l2,4.61L89.81,193l-1.15,4.54s3.17,1.58,3.74,3,1.16.87,3.75,3.46a32.07,32.07,0,0,1,4.9,5.48c2.88,3.74,5.47,7.2,5.47,7.2s7.49,2.88,8.65,8.64,1.15,7.21,1.44,8.07a15.25,15.25,0,0,1,.08,3.31,40.26,40.26,0,0,1,7.24-.35c-1.13-2.25.75-2.53.75-2.53l2.59-9.5a19.15,19.15,0,0,0,5.38,0,12.59,12.59,0,0,1,4.56,0,12.65,12.65,0,0,0,4.32-3.89c1.73-2.6,2.16-6.92,2.16-6.92a12.23,12.23,0,0,0-3.45-6.48c-3-3-12.11-5.62-16.86-8.65s1.3-2.59,3.46-6.05,0,0,0-3.46c0-1.37.88-3.82,1.94-6.28l-.21-.2-5.12-12.1v-8.07a39.58,39.58,0,0,0,4.68-16.14,117.07,117.07,0,0,0,0-20.17c-.3-5.19-3-14.58-5.53-22.27-9,3.11-5.73,5.4-14.35,10.06-10.37,5.62-6.48,7.78-7.78,13.4s-3.89,1.3-5.19,7.35-2.16,12.53-3,17.72c-.36,2.15-.42,3.7-.71,4.79,1.06,1.77,2,3.7,2,5Z" />
            <path class="cls-1"
                d="M128.13,146.07a39.58,39.58,0,0,1-4.68,16.14v8.07l5.12,12.1.21.2c1.63-3.76,3.68-7.55,3.68-7.55s-2.05,3.79-3.68,7.55c1.37,1.25,8.89,8.08,12,10.17,3.46,2.31,5.19-3.45,9.22,0a37.76,37.76,0,0,1,8.07,9.8c1.73,2.88,4.61,2.88,9.22,0s12.1,1.44,13.26,2.16,5.76-3.6,11.52,0,12.1,5.91,11,12.82-2.3,16.72-2.3,16.72-5.77,4.61-6.92,0-8.07-6.92-9.8-5.19-4.61,2.95-4.61,7.24,4,21,7.5,27.91a92.52,92.52,0,0,1,4.61,10.38l-1.16,7.49L186.92,289s-1.42,4.61-.92,5.49l.43-.14c.29-3.36,1.82-7.44,7-11.69-5.15,4.25-6.68,8.33-7,11.69l.49-.16c2.3-2.3,8.06-9.22,8.06-9.22s.58,4,4.61,2.88.58-6.34.58-6.34l3-6.91,4.47.57h3.46a36.89,36.89,0,0,0,5.22-3.45c1.12-1.16,4-1.73,4-1.73l4-.58,5.77-9.22s-4.61-13.26,0-13.26,15.41,1,19.59,5.19A16.23,16.23,0,0,0,254.9,255c3.1-2.44,8.9,4.28,8.52-3.43a114.4,114.4,0,0,0-1.73-15.13l9.94-6.91s10.37,2.16,9.94-6.92-3.89-13.83-3.46-16,6.49-10.81,14.7-29,12.53-12.53,23.77-16.86S335.17,153,335.17,153l20.74-1.29s-.43-6.49,8.65-6.92,14.26,1.73,14.26,1.73,3.46,3,6.05,2.59.43-9.07.43-9.07l-5.18-6.92-14.7-.86s13.83-14.7,18.15-21.18.44-17.29.44-17.29-6.49-9.08-13.83-9.51-9.51-7.78-15.13-6.48-13,6.91-16,3.46a58.06,58.06,0,0,0-8.65-7.35,39.5,39.5,0,0,1-20.31,8.64,106.42,106.42,0,0,1-20.32.44L280.27,77s6.06-11.23,1.3-15.12-8.64,1.73-9.51-.87,4.32-3.46-2.16-11.67l-6.48-8.21s-11.24.86-15.56-3.89l-4.32-4.75s-3-20.32-16.86-23.78-18.15-3.89-18.15-3.89l-6.92-1.72L195.13.45s3,10.37,9.51,16,4.75,19.45,4.75,19.45-3-.86-5.19,0,0,12.54-4.32,18.59S177,79.55,172.22,81.71,148,97.27,129.86,101.59a75.12,75.12,0,0,0-7.26,2c2.5,7.69,5.23,17.08,5.53,22.27A117.07,117.07,0,0,1,128.13,146.07Z" />
            <path class="cls-1"
                d="M21.52,143.19l5.19.87a2.8,2.8,0,0,0,2.88,0c.69-.35,1.81-1,3.09-1.63a2.4,2.4,0,0,1-.2-.64c-.3-2.16,10.94-.87,11.37-4.76s-2.16-10.37-2.59-12.1S30,120.18,20.51,129.69c-5.16,5.16-7.4,8.28-9.4,10.48A12.25,12.25,0,0,0,14.89,142C18.93,143.19,16.33,142.33,21.52,143.19Z" />
            <path class="cls-1"
                d="M65.73,237.7c2.18-.57,2.18-1.15,5.06-1.15A3,3,0,0,1,72,233.38c1.72-1.44,8.06-1.73,5.47-4.61S68.83,223,68.83,223l-2.07-5.76a1.77,1.77,0,0,1,0-3.17c2.3-1.73.86-1.73,3.74-2.89L73.39,210l.86-6.63a14.25,14.25,0,0,1-5.19-.86v.29l-2,.29a44.82,44.82,0,0,1-6.63-2.89c-1.73-1.15-2.31-.28-3.46-2.59s-1.44-.86-2.3-2-1.73-4.89-1.73-4.89L50.3,189l-1.41,4a4.4,4.4,0,0,1,0,6.41c-3.17,3.46-4.61,0-6.34,0s-4,1.73-4,1.73-3.46,6-6.34,12.39C31,216,29.42,219,27.9,221.6c8.34,3.93,16.75,7.42,19.84,12.68,1.56,2.65,4.35,6.92,7.53,11.83l4.28-2.93S63.56,238.28,65.73,237.7Z" />
            <path class="cls-3"
                d="M38.52,201.11s2.31-1.73,4-1.73,3.17,3.46,6.34,0a4.4,4.4,0,0,0,0-6.41l1.41-4,2.63,1.73s.86,3.74,1.73,4.89,1.15-.28,2.3,2,1.73,1.44,3.46,2.59a44.82,44.82,0,0,0,6.63,2.89l2-.29v-.29a5.89,5.89,0,0,1-3.33-2.88,5.89,5.89,0,0,0,3.33,2.88v-6.34s-1.44,1-1.15-3.24a36,36,0,0,1,1.15-7.13s2.31-3.17,1.73-4.61-1.15-2.88-1.44-3.75S68.2,176,69.06,175c.53-.62,3.13-3.14,5-5.39a15.76,15.76,0,0,1-6.92-7.54c-2.59-5.62-1.73-8.21-6-9.94s-13.83.43-16-3.89-4.76,5.19-10.81,3.89,4.76-3,3-5.62c-1.54-2.3-4-2.56-4.69-4.11-1.28.62-2.4,1.28-3.09,1.63a2.8,2.8,0,0,1-2.88,0l-5.19-.87c-5.19-.86-2.59,0-6.63-1.15a12.25,12.25,0,0,1-3.78-1.87A14.81,14.81,0,0,1,5,144.38c-6.48,2.59-4.75,19-3.46,20.75S6.68,169,6.68,169a113.88,113.88,0,0,0,5.19,13.4c2.59,5.18,4.75,8.64,4.75,8.64a5,5,0,0,1-.43,6.05c-2.59,3-4.32.87-6.48,4.76S8,210.08,18.35,216.56a93.57,93.57,0,0,0,9.55,5C29.42,219,31,216,32.18,213.5,35.06,207.16,38.52,201.11,38.52,201.11Z" />
        </g>
    </g>
</svg>