<svg xmlns="http://www.w3.org/2000/svg" viewBox="0 0 960.27 649.49"><defs><style>.cls-1,.cls-3{font-size:22px;}.cls-1{fill:#1670ad;font-family:MyriadPro-Semibold, Myriad Pro;font-weight:600;}.cls-2{font-family:MyriadPro-Regular, Myriad Pro;font-weight:400;}.cls-3{fill:#56585a;font-family:MyriadPro-It, Myriad Pro;font-style:italic;}.cls-4{letter-spacing:-0.01em;}.cls-5{letter-spacing:-0.02em;}.cls-6{letter-spacing:-0.01em;}.cls-7{letter-spacing:0em;}.cls-8{letter-spacing:-0.01em;}.cls-9{letter-spacing:-0.02em;}.cls-10{letter-spacing:0.01em;}.cls-11{letter-spacing:0em;}.cls-12{letter-spacing:0em;}.cls-13{letter-spacing:-0.01em;}.cls-14{letter-spacing:-0.01em;}.cls-15{letter-spacing:0em;}.cls-16{letter-spacing:0em;}.cls-17{letter-spacing:-0.01em;}.cls-18{letter-spacing:-0.02em;}.cls-19{fill:#4070b6;}.cls-19,.cls-21{stroke:#fff;stroke-width:0.53px;}.cls-19,.cls-21,.cls-22{stroke-miterlimit:10;}.cls-20,.cls-22{fill:none;}.cls-21{fill:#5387c4;}.cls-22{stroke:#1670ad;stroke-width:2px;stroke-dasharray:8;}.cls-23{fill:#fccf10;}</style></defs><g id="Capa_2" data-name="Capa 2"><g id="Encabezado"><text class="cls-1" transform="translate(147 413.99)">Lima<tspan class="cls-2" x="46.31" y="0"> </tspan></text><text class="cls-3" transform="translate(147 439.99)"><tspan class="cls-4">C</tspan><tspan x="12.06" y="0">ent</tspan><tspan class="cls-5" x="40.66" y="0">r</tspan><tspan x="47.32" y="0">al </tspan><tspan class="cls-6" x="67.85" y="0">A</tspan><tspan class="cls-7" x="80.12" y="0">dminist</tspan><tspan class="cls-8" x="146.37" y="0">r</tspan><tspan x="153.03" y="0">ati</tspan><tspan class="cls-9" x="176.44" y="0">v</tspan><tspan x="186.08" y="0">a </tspan></text><text class="cls-1" transform="translate(385 617.99)"><tspan class="cls-10">I</tspan><tspan x="5.94" y="0">lo</tspan><tspan class="cls-2" x="24" y="0"> </tspan></text><text class="cls-3" transform="translate(385 643.99)">Harina de <tspan class="cls-11" x="90.07" y="0">p</tspan><tspan x="101.68" y="0">es</tspan><tspan class="cls-5" x="119.85" y="0">c</tspan><tspan x="128.83" y="0">ado </tspan></text><text class="cls-1" transform="translate(102 323.99)"><tspan class="cls-12">A</tspan><tspan x="13.88" y="0">ncash</tspan><tspan class="cls-2" x="69.28" y="0"> </tspan></text><text class="cls-3" transform="translate(102 349.99)"><tspan class="cls-13">P</tspan><tspan class="cls-14" x="10.91" y="0">r</tspan><tspan class="cls-15" x="17.78" y="0">o</tspan><tspan x="29.33" y="0">du</tspan><tspan class="cls-10" x="52.45" y="0">c</tspan><tspan class="cls-16" x="61.88" y="0">t</tspan><tspan x="68.68" y="0">os </tspan><tspan class="cls-17" x="92.38" y="0">C</tspan><tspan x="104.43" y="0">ongelados </tspan></text><text class="cls-1" transform="translate(0 181.99)"><tspan class="cls-18">P</tspan><tspan x="11.84" y="0">aita</tspan><tspan class="cls-2" x="47.54" y="0"> </tspan></text><text class="cls-3" transform="translate(0 207.99)"><tspan class="cls-13">P</tspan><tspan class="cls-14" x="10.91" y="0">r</tspan><tspan class="cls-15" x="17.78" y="0">o</tspan><tspan x="29.33" y="0">du</tspan><tspan class="cls-10" x="52.45" y="0">c</tspan><tspan class="cls-16" x="61.88" y="0">t</tspan><tspan x="68.68" y="0">os </tspan><tspan class="cls-17" x="92.38" y="0">C</tspan><tspan x="104.43" y="0">ongelados </tspan></text><path class="cls-19" d="M749.94,475.71a12.34,12.34,0,0,0,2.6-1.73c.86-.86,0-4,0-4l.38-7.78a12.86,12.86,0,0,0-2.11-4.32c-1.44-1.73-3.17-3.75-3.17-3.75l1.44-2.88s.19-.86,3.84,0,4.8,0,4.8,0-1.73-5.47,1.73-6.92a33.58,33.58,0,0,0,5.19-2.59s1.15,2,1.73-1.73a14,14,0,0,0,0-5.62,13.56,13.56,0,0,1,.25-2.45c.32-2.59-.25-4.32-1.41-6.91s-2.3-4-2.88-5.76-3.74-.58-1.58-4c.88-1.4,2.54-3.57,4.2-5.64a13.94,13.94,0,0,1-1.47-1c-1.44-1.15-.86-.28-5.47-2.69s-6,.39-6,.39-6.92-.87-10.37,0,0,0,.28,1.15-1.15,2.88-1.15,2.88a28.07,28.07,0,0,0-1.73,6.05c-.57,3.46-.86,2.89-5.18,8.07a12.06,12.06,0,0,1-6.84,4.05c-.19,1.4-.35,2,.21,3.16.86,1.72-5.19,5.18-5.19,5.18L720.51,438c1.39,1,2.45,2,2.35,2.6a11.07,11.07,0,0,1-1.73,4.61c-.87,1.15-2.88,1.73-2.45,3.46s.14,1.44,1.29,2.59,7.29,1.73,7.29,1.73,4.53-3.46,2.08,3.17-3.72,8.64-2.08,10.37,2.8,1.73,5.11,3.75-.87,1.44,6,4l2.79,1.05,2-6.24-2,6.24,4.12,1.54Z"/><path class="cls-19" d="M805,496.17l-6.34,2.88a27.42,27.42,0,0,1-5.19,1.73c-3.46.87-1.73-1.44-1.44-3.17s.58-3.17.58-3.17a25.7,25.7,0,0,0,.29-6.34A16.87,16.87,0,0,0,790,480c-1.44-2.3,0-2.3-1.15-6a32.32,32.32,0,0,0-2.59-6.34c-1.44-3.17-1.15-1.72-3.17-3.74s-2-5.76-2.72-6.92,1.85-5.76,1.85-5.76,3.75-2.31,4.33-.48,4.61,3.36,4.61,3.36,7.49,1.73,11.23,0a15.41,15.41,0,0,0,2.51-1.48,2.24,2.24,0,0,1-.78-1.4c-.28-2.31-5.18-.29-7.49-3.75s-4.32-7.2-4.32-7.2l-2.59-1.73a16.52,16.52,0,0,0,0-6.91c-.87-3.17-2-1.73-2.6-2.83a2.08,2.08,0,0,0-2-.92l-1.16-1.15c-1.15-1.16,0-2.88,0-2.88a42.19,42.19,0,0,0-3.58-6.06,16.12,16.12,0,0,1-2.1-5.66c-4.19.57-2.54,1.34-5.27,1.34s-5.47-2.59-5.47-2.59-1.3-.58-2.57-1.32c-1.66,2.07-3.32,4.24-4.2,5.64-2.16,3.46,1,2.31,1.58,4s1.73,3.17,2.88,5.76,1.73,4.32,1.41,6.91a13.56,13.56,0,0,0-.25,2.45,14,14,0,0,1,0,5.62c-.58,3.75-1.73,1.73-1.73,1.73a33.58,33.58,0,0,1-5.19,2.59c-3.46,1.45-1.73,6.92-1.73,6.92s-1.15.86-4.8,0-3.84,0-3.84,0l-1.44,2.88s1.73,2,3.17,3.75a12.86,12.86,0,0,1,2.11,4.32l-.38,7.78s.86,3.17,0,4a12.34,12.34,0,0,1-2.6,1.73l-4.61,1.15-4.12-1.54-.49,1.54-.58,6.34,3.05,4a18.94,18.94,0,0,0,3.87,3.17c2,1.15,2.59,2.59,5.35,4.9s.41,4.32-.16,5.47.57,4.32,0,6.63c0,0,4.9,1.73,5.76,1.15s2.31,6.34,2.74,10.66,9.36.58,12.82.29,0,1.44,0,7.78,5.76-1.73,8.36-5.47,2-1.73,12.67-2.6c2.52-.2,3.92-.31,4.6-.35a31.31,31.31,0,0,0,8.37-8.87c4.32-6.63-1.44-2.88,0-4.9s3.46-2.59,4.32-4.32a11,11,0,0,1,2.24-2.45l-2.24-3Z"/><path class="cls-19" d="M733.81,424.42c4.32-5.18,4.61-4.61,5.18-8.07a28.07,28.07,0,0,1,1.73-6.05s1.44-1.73,1.15-2.88-3.74-.29-.28-1.15,10.37,0,10.37,0,1.44-2.79,6-.39,4,1.54,5.47,2.69a13.94,13.94,0,0,0,1.47,1c2.44-3,4.87-5.88,4.87-5.88s-2.43,2.84-4.87,5.88c1.27.74,2.57,1.32,2.57,1.32s2.59,2.59,5.47,2.59,1.08-.77,5.27-1.34a36.6,36.6,0,0,1-.66-6.15,36.6,36.6,0,0,0,.66,6.15l.78-.1c5.19-.57,2,1.15,5.19-.57s3.46-.42,6-6.55a12.77,12.77,0,0,0,0-10.74l-1.73-1.52a11.45,11.45,0,0,0,2.88-1.94,59.2,59.2,0,0,0,4.33-4.61,21.59,21.59,0,0,0,.81-3.54,65.76,65.76,0,0,1-3.41-5.68v-4.76l-4.32-6.05h-4.75l-3.46,6.49h-6.92l-4.32.43h-7.78s-3.11-2.6-2.1-5l-1.79-.07c-6.91-.29-3.74-1.44-13.79-4.33s-1.48,3.17-6.95,2-4.33-.59-5.77,0a58.91,58.91,0,0,1-5.76,1.52,10.83,10.83,0,0,1-3.75.11c-1.15-.38-3.17.38-5.18.09s-3.46,0-4.61,2.59-5.58,0-5.58,0h-3.64a27.89,27.89,0,0,1-1.44,5.77c-.57,1.54-3.51,1.58-6.39,1.21a28.19,28.19,0,0,1,1.2,5.41l4,4.92a4.06,4.06,0,0,1,1.73,3.15c0,2,3.17,3.75,3.17,3.75s2.88-2.88,1.15,2,3.17,10.09,5.48,10.09,7.49-1.15,10.08,1.73l2.6,2.88v1.44s-2,1.15,0,5.47,2.88,3.46,2.88,7.5a23.23,23.23,0,0,1-.21,3.18A12.06,12.06,0,0,0,733.81,424.42Z"/><path class="cls-19" d="M701.25,375.73a27.89,27.89,0,0,0,1.44-5.77h3.64s4.42,2.6,5.58,0,2.59-2.88,4.61-2.59,4-.47,5.18-.09a10.83,10.83,0,0,0,3.75-.11,58.91,58.91,0,0,0,5.76-1.52c1.44-.59.29-1.15,5.77,0s-3.1-4.91,6.95-2,6.88,4,13.79,4.33l1.79.07a4.11,4.11,0,0,1,2.1-1.95c5.19-2.59,8.65-3.89,9.08-7.34s-3.46-6.06-3.46-6.06-2.59-.86-2.59-6.05v-9.51a45.68,45.68,0,0,1-1.3-6.05c0-.73-1.81-2.31-3.77-4.16-1.83,1.75-3.76,3.45-4.44,3.59a89.75,89.75,0,0,0-8.93,1.44c-5.19,1.15-4.9,0-4.9,0s-2.88,1.44-4.61,2.16-6.05,0-6.05,0h-5.77s-6.91,1.58-8.35,5.33.86,4.9,1.44,6.05,0,4.32-3.46,5.76-2.31.58-4,1.16-2.6-.29-4.33-2.58-.86-.59-3.17-1.75-2-.28-4.89-.57a35.25,35.25,0,0,0-6.92.29,28.68,28.68,0,0,1-3.8,4.5l3.51,9.61s-1.44,3.75,0,6.34.29-.28,1.44,2.6.58.86,2,4.61c.2.51.37,1,.53,1.5C697.74,377.31,700.68,377.27,701.25,375.73Z"/><path class="cls-19" d="M757.72,246.92c-4.61,0,0,13.26,0,13.26L752,269.4l-4,.58s-2.88.57-4,1.73a36.85,36.85,0,0,1-5.23,3.45h-3.45l-4.48-.57-3,6.91s3.46,5.19-.57,6.34-4.61-2.88-4.61-2.88-5.76,6.92-8.07,9.22a2,2,0,0,1-.5.39c-.2,2.92.5,5.27.5,6.67,0,3,1.3,3,0,4.75s4.32,6.49,5.62,11.06,3.46,1.91,3.6,2.34,6.34-2.34,6.34-2.34,6.05-4.57,8.21-6.48,5.66-12.36,5.66-12.36l7.31-6,9.51,2.46a15.89,15.89,0,0,1-4.32,4.89c-2.6,1.73-.44,2.59-1.74,4.32s.44,7.35.87,11.24-2.16,3.89,0,7.35a25.26,25.26,0,0,0,4,4.48c2-1.93,3.91-3.91,3.91-3.91s-1.9,2-3.91,3.91c2,1.85,3.77,3.43,3.77,4.16a45.68,45.68,0,0,0,1.3,6.05v9.51c0,5.19,2.59,6.05,2.59,6.05s3.89,2.6,3.46,6.06-3.89,4.75-9.08,7.34a4.11,4.11,0,0,0-2.1,1.95l5.13.21,5.18-.28-5.18.28-5.13-.21c-1,2.37,2.1,5,2.1,5h7.78l4.32-.43h6.92l3.46-6.49h4.75l4.32,6.05v4.76a65.76,65.76,0,0,0,3.41,5.68c.89-4.76,2.07-12.57,2.07-12.57s-1.18,7.81-2.07,12.57a5.46,5.46,0,0,0,1.35,1.48c1.29.67,3.6-2.86,3.6-2.86s6.77-.84,8.07,0,3.89,3.05,3.89,3.05,3,1.72,4.32,0,2.59,3,2.59,3a10.4,10.4,0,0,0,7.78-3c1.69-1.69,6.13-2.45,10.26-2.79.2-.79.4-1.65.55-2.4a43.33,43.33,0,0,0,.86-6.92c0-1.73-3-6.05,1.3-4.32s5.19,5.19,7.35,4.32a101.22,101.22,0,0,0,10.37-4.72,49.92,49.92,0,0,0,4.32-3.06,10.42,10.42,0,0,1,4.33-3c2.59-.87,2,2.16,5.78,0s6.53-3.46,6.53-3.46,1.08-2.16,1.95-4.32,1.73-5.19,1.73-5.19l2.67-4.75h2.51l7.45-3.64a31,31,0,0,1,.33-3.24c.87-4.76,1.3-13.83,1.3-13.83s-19.88,19.45-29.39,20.31-25.07,3.89-25.07,1.3-3.46-15.56-3.46-15.56a23.42,23.42,0,0,0-15.12-6.49c-9.51-.43-16-.86-12.54-9.94s-3.46-11.67-6-17.72-5.19-7.35-6.92-9.07-5.61-3-5.18-6.06-2.6-7.78-6.49-13.39-8.64-4.33-6-9.94a3.49,3.49,0,0,1,1-1.33,16.12,16.12,0,0,1-5.17-2.89C773.14,247.9,762.33,246.92,757.72,246.92Z"/><path class="cls-19" d="M830.05,488.68c.86-2,8.93-4.61,8.93-4.61l2.88-9.51a52.46,52.46,0,0,0,0-6.92c-.29-2-1.44-1.44-3.46-2.3s-5.47-.87-10.66-5.76-19.3-5.48-19.3-5.48a7.8,7.8,0,0,1-3.55-1.48,15.41,15.41,0,0,1-2.51,1.48c-3.74,1.73-11.23,0-11.23,0s-4-1.54-4.61-3.36-4.33.48-4.33.48-2.55,4.61-1.85,5.76.7,4.9,2.72,6.92,1.73.57,3.17,3.74a32.32,32.32,0,0,1,2.59,6.34c1.15,3.75-.29,3.75,1.15,6a16.87,16.87,0,0,1,2.89,8.07,25.7,25.7,0,0,1-.29,6.34s-.29,1.44-.58,3.17-2,4,1.44,3.17a27.42,27.42,0,0,0,5.19-1.73l6.34-2.88,6.91-.86,2.24,3c1.85-1.65,4.1-3.31,4.1-3.31h9.18c0-.43,0-.91,0-1.44C827.45,489.26,829.18,490.7,830.05,488.68Z"/><path class="cls-19" d="M884.36,442.79s-9.18-.65-11.07-2.38a106,106,0,0,0-8.81-6.05s-6.48,1.73-9.08,0-1.73-2.16-3.89-2.16-5.18-2.59-5.18-2.59v-6.92s1.29-2.59,0-3.89a54.85,54.85,0,0,0-6.05-4.32c-1.3-.86-3.89-3-4.76-4.75s-6-3.46-3-10.38,2.59-3,3.89-9.07l1.29-6s.37-1.29.75-2.79c-4.13.34-8.57,1.1-10.26,2.79a10.4,10.4,0,0,1-7.78,3s-1.29-4.75-2.59-3-4.32,0-4.32,0-2.6-2.2-3.89-3.05-8.07,0-8.07,0-2.31,3.53-3.6,2.86a5.46,5.46,0,0,1-1.35-1.48,21.59,21.59,0,0,1-.81,3.54,59.2,59.2,0,0,1-4.33,4.61,11.45,11.45,0,0,1-2.88,1.94l1.73,1.52a12.77,12.77,0,0,1,0,10.74c-2.59,6.13-2.88,4.82-6,6.55s0,0-5.19.57l-.78.1a16.12,16.12,0,0,0,2.1,5.66,42.19,42.19,0,0,1,3.58,6.06s-1.15,1.72,0,2.88l1.16,1.15a2.08,2.08,0,0,1,2,.92c.58,1.1,1.73-.34,2.6,2.83a16.52,16.52,0,0,1,0,6.91l2.59,1.73s2,3.75,4.32,7.2,7.21,1.44,7.49,3.75a2.24,2.24,0,0,0,.78,1.4c2.77-2,5.12-4.67,5.56-6-.44,1.34-2.79,4.05-5.56,6a7.8,7.8,0,0,0,3.55,1.48s14.11.58,19.3,5.48,8.65,4.89,10.66,5.76,3.17.29,3.46,2.3a52.46,52.46,0,0,1,0,6.92L839,484.07s-8.07,2.59-8.93,4.61-2.6.58-2.6,4.9c0,.53,0,1,0,1.44h0c-.21,3.09-1,3.85,0,4.61s-3.45-.87,1.16.86,3.45-.86,7.49,0c3.52.76,5.48-.2,5.84.3,0-1.28,0-4.91,0-4.91l4.77,4a13.54,13.54,0,0,1,0,3.74,5.71,5.71,0,0,0,2.88,5.19c1.44.58,6.92,0,6.92,0a24.09,24.09,0,0,1,3.17.26,34.85,34.85,0,0,0,6.33,0s.87.6,2.6,2-.87-2.3,1.73,1.44c1.74,2.52,2.7,5.41,4.45,7.31l4.12-4.28s-7.13-7.35-5.4-10.37l1.73-3-2-3.89v-3.89l3.29-2.16s1-.43,2.24-3.46,2.95-4.75,2.95-6.05,3-1.29,2.59-5.18-3.46-4.76-1.73-9.08,1.3-2.59,4.33-6.48l3-3.89s-3-.87,0-2.6a21.48,21.48,0,0,0,5.19-4.32l3.89-7.78-6.49-4.32Z"/><path class="cls-19" d="M886.17,343.6l-2.67,4.75s-.87,3-1.73,5.19-1.95,4.32-1.95,4.32-2.81,1.3-6.53,3.46-3.19-.87-5.78,0a10.42,10.42,0,0,0-4.33,3,49.92,49.92,0,0,1-4.32,3.06,101.22,101.22,0,0,1-10.37,4.72c-2.16.87-3-2.59-7.35-4.32s-1.3,2.59-1.3,4.32A43.33,43.33,0,0,1,839,379c-.15.75-.35,1.61-.55,2.4,4.34-.35,8.33-.24,8.33-.24s-4-.11-8.33.24c-.38,1.5-.75,2.79-.75,2.79l-1.29,6c-1.3,6.05-.87,2.16-3.89,9.07s2.16,8.65,3,10.38,3.46,3.89,4.76,4.75a54.85,54.85,0,0,1,6.05,4.32c1.29,1.3,0,3.89,0,3.89v6.92s3,2.59,5.18,2.59,1.3.43,3.89,2.16,9.08,0,9.08,0a106,106,0,0,1,8.81,6.05c1.89,1.73,11.07,2.38,11.07,2.38l8.21-3.67,6.49,4.32s-.44-6.92,0-9.08c-.44,2.16,0,9.08,0,9.08l9.07,4.75,13.4,3s8.21-3,13.83-5.62c4.17-1.92,17.83-7.17,24.62-9.75,0-.2,0-.4,0-.59,0-9.51-7.78-24.63-7.78-24.63l-9.08-13.83s-17.72-18.59-19.88-20.32-12.1,1.3-16.42,2.6S896,380.37,896,368.27c0-10-.29-21.86.1-28.31l-7.45,3.64Z"/><path class="cls-20" d="M798.64,519.22l.48-.3-3.07.3Z"/><path class="cls-19" d="M691.16,347.78a35.25,35.25,0,0,1,6.92-.29c2.88.29,2.59-.58,4.89.57s1.44-.53,3.17,1.75,2.6,3.15,4.33,2.58.57.28,4-1.16,4-4.61,3.46-5.76-2.88-2.3-1.44-6.05,8.35-5.33,8.35-5.33h5.77s4.32.72,6.05,0,4.61-2.16,4.61-2.16-.29,1.15,4.9,0a89.75,89.75,0,0,1,8.93-1.44c.68-.14,2.61-1.84,4.44-3.59a25.26,25.26,0,0,1-4-4.48c-2.16-3.46.43-3.46,0-7.35s-2.17-9.51-.87-11.24-.86-2.59,1.74-4.32a15.89,15.89,0,0,0,4.32-4.89l-9.51-2.46-7.31,6s-3.5,10.45-5.66,12.36-8.21,6.48-8.21,6.48-6.2,2.78-6.34,2.34-2.3,2.24-3.6-2.34-6.92-9.33-5.62-11.06,0-1.72,0-4.75c0-1.4-.7-3.75-.5-6.67-.2.09-.33.05-.42-.09-1.23.36-3.37.83-4.27.14-1.29-1-5.18,0-5.18,0v-2.31s0-4-5.19-7.06,0,7.06,0,7.06l-2.16-.58a15.67,15.67,0,0,1-8.65,0,8.91,8.91,0,0,1-4.62-3.31h0c-1.31,1.45-2.14,3.16-4.73,1.72s0,0-4.61-1.44c-2-.64-4.55-.1-6.74.69.57.63.7.68,2.13,3.34,2,3.75,1.44,2.3,2.59,5.19s-.57.86,1.73,4.61-.86,4.9,4.61,5.76,5.48,1.66,6.63,2.27a9.32,9.32,0,0,1,2.3,2.05s-6.91,4-7.78,10.09.87,4.9-1.72,7.2l-2.6,2.31,1.73,4a14.52,14.52,0,0,0,2,4.32c1.44,2,.57-.57,1.44,2s0,3.46-.87,5.76c0,.06,0,.11-.07.16a11.29,11.29,0,0,1,2.28,2.15c.68,1.15,3.27,1.73,3.56,2.3s-2.31,2,.29.58a9.63,9.63,0,0,0,1.67-1.26l-2-5.37,2,5.37A28.68,28.68,0,0,0,691.16,347.78Z"/><path class="cls-20" d="M842,501.1a.47.47,0,0,0,0-.31C841.94,501.2,842,501.37,842,501.1Z"/><path class="cls-20" d="M714.5,294.18l-.48.16c0,.08,0,.15,0,.23A2,2,0,0,0,714.5,294.18Z"/><path class="cls-19" d="M688.13,291.73a15.67,15.67,0,0,0,8.65,0l2.16.58s-5.19-10.09,0-7.06,5.19,7.06,5.19,7.06v2.31s3.89-1,5.18,0c.9.69,3,.22,4.27-.14-.5-.88.92-5.49.92-5.49l3.46-6.91,1.15-7.49a90.1,90.1,0,0,0-4.61-10.38C711,257.3,707,240.59,707,236.3s2.88-5.51,4.61-7.24,8.64.58,9.8,5.19,6.91,0,6.91,0,1.15-9.8,2.31-16.72-5.19-9.22-10.95-12.82-10.38.72-11.53,0-8.64-5-13.25-2.16-7.5,2.88-9.22,0a38,38,0,0,0-8.07-9.8c-4-3.45-5.77,2.31-9.22,0-3.14-2.09-10.66-8.92-12-10.17-1.07,2.46-2,4.91-2,6.28,0,3.46,2.16,0,0,3.46s-8.21,3-3.46,6.05S664.79,204,667.82,207a12.21,12.21,0,0,1,3.46,6.48s-.43,4.32-2.16,6.92a12.64,12.64,0,0,1-4.33,3.89,12.56,12.56,0,0,0-4.56,0,19.18,19.18,0,0,1-5.38,0l-2.59,9.5s-1.88.28-.75,2.53a16.75,16.75,0,0,1,6.23,1.36,16.75,16.75,0,0,0-6.23-1.36,10.67,10.67,0,0,0,1.61,2.23c3.89,4.32-.43,8.21,2.17,12.1s7.78,2.59,7.34,8.64A26.9,26.9,0,0,0,664.79,271l2.6,3.89h3.89c1.73,0,6.91-2.59,7.78,0a84.18,84.18,0,0,0,3.46,7.78h-2.17a21.36,21.36,0,0,0,3.16,5.77,10.2,10.2,0,0,0,1.89-3.75,10.2,10.2,0,0,1-1.89,3.75A8.91,8.91,0,0,0,688.13,291.73Z"/><path class="cls-20" d="M714,294.57c0-.08,0-.15,0-.23l-.44.14C713.67,294.62,713.8,294.66,714,294.57Z"/><path class="cls-20" d="M799.2,518.87l-.08,0C799.79,518.85,800.06,518.81,799.2,518.87Z"/><path class="cls-19" d="M745.33,516.05c5.19-6,6.34-6.34,6.92-8.64L742.16,504l10.09,3.46c.57-2.31-.58-5.48,0-6.63s2.92-3.17.16-5.47-3.33-3.75-5.35-4.9a18.94,18.94,0,0,1-3.87-3.17l-3.05-4,.58-6.34.49-1.54-2.79-1.05c-6.92-2.59-3.75-2-6-4s-3.46-2-5.11-3.75-.37-3.74,2.08-10.37-2.08-3.17-2.08-3.17-6.13-.58-7.29-1.73-.86-.86-1.29-2.59,1.58-2.31,2.45-3.46a11.07,11.07,0,0,0,1.73-4.61c.1-.62-1-1.6-2.35-2.6a43.89,43.89,0,0,1-6,4c-2,.86-8.36,1.73-10.37,3.17-.92.65-3.48,2.31-6.1,4a100.86,100.86,0,0,0,6.1,9l2.16,2.59s-4.76,19.45.43,29,19,16.86,22,22c2.66,4.55,3.32,7.78,8.43,12.89C739.69,522.2,742.79,519,745.33,516.05Z"/><path class="cls-19" d="M858.86,573.54v-2.88s.87-1.44,5.19-5.77L874,555h5.62v-10.8l.79-.95c-2-3.29-4-7.06-4.25-9-.43-3.89.86-5.19,0-7.35s-2.59-5.62-2.59-5.62l1.28-1.34c-1.75-1.9-2.71-4.79-4.45-7.31-2.6-3.74,0,0-1.73-1.44s-2.6-2-2.6-2a34.85,34.85,0,0,1-6.33,0,24.09,24.09,0,0,0-3.17-.26s-5.48.58-6.92,0a5.71,5.71,0,0,1-2.88-5.19,13.54,13.54,0,0,0,0-3.74l-4.77-4s-.07,3.63,0,4.91a.47.47,0,0,1,0,.31c0,.27,0,.1,0-.31-.36-.5-2.32.46-5.84-.3-4-.86-2.88,1.73-7.49,0s0,0-1.16-.86-.25-1.52,0-4.61h-9.18s-2.25,1.66-4.1,3.31l3.53,4.76,4.89,5.47-4.89-5.47-3.53-4.76a11,11,0,0,0-2.24,2.45c-.86,1.73-2.88,2.31-4.32,4.32s4.32-1.73,0,4.9a31.31,31.31,0,0,1-8.37,8.87c.86-.06.59,0-.08,0l-.48.3h-2.59l3.07-.3.08,0c-.68,0-2.08.15-4.6.35-10.66.87-10.08-1.15-12.67,2.6s-8.36,11.81-8.36,5.47,3.46-8.07,0-7.78-12.39,4-12.82-.29S758.87,508,758,508.56s-5.76-1.15-5.76-1.15c-.58,2.3-1.73,2.59-6.92,8.64-2.54,3-5.64,6.15-8.14,8.61.7.71,1.49,1.45,2.38,2.23,7.35,6.49,24.64,14.27,31.12,17.72s13,9.95,13,9.95L794,562.77s18.58,3.89,23.77,6.48,18.15,10.37,22,13.4a36,36,0,0,0,8.65,4.75s3,1.32,6.23,2.78a54.18,54.18,0,0,1,4.14-7.57C861.45,579.16,858.86,573.54,858.86,573.54Z"/><path class="cls-21" d="M714.5,442a43.89,43.89,0,0,0,6-4,60,60,0,0,0-6-3.6,60,60,0,0,1,6,3.6l1.48-1.15s6-3.46,5.19-5.18c-.56-1.12-.4-1.76-.21-3.16a13.42,13.42,0,0,1-4.11.27,13.42,13.42,0,0,0,4.11-.27,23.23,23.23,0,0,0,.21-3.18c0-4-.87-3.17-2.88-7.5s0-5.47,0-5.47v-1.44L721.7,408c-2.59-2.88-7.78-1.73-10.08-1.73s-7.21-5.19-5.48-10.09-1.15-2-1.15-2-3.17-1.73-3.17-3.75a4.06,4.06,0,0,0-1.73-3.15l-4-4.92a28.19,28.19,0,0,0-1.2-5.41,47.06,47.06,0,0,1-6-1.21,47.06,47.06,0,0,0,6,1.21c-.16-.48-.33-1-.53-1.5-1.44-3.75-.86-1.73-2-4.61s0,0-1.44-2.6,0-6.34,0-6.34l-3.51-9.61a9.63,9.63,0,0,1-1.67,1.26c-2.6,1.44,0,0-.29-.58s-2.88-1.15-3.56-2.3a11.29,11.29,0,0,0-2.28-2.15c-1,2.2-4.25,3.3-4.25,3.3s.87-2-1.44,1.44-2.3,3.75-3.46,5.19-1.44-.58-3.45,2.3-3.46,5.19-5.19,4.61-3.75,2-4-2a7.49,7.49,0,0,0-3.17-5.77l-1.45-1.73,1.16-5.47-3.6,3.74s-2.49,6.48-4.06,7.85c5.34,6.71,11.14,15.57,10,21.44-1.73,8.64,4.32,4.75,8.65,7.78s16.42,29.39,23.34,41.92c3.41,6.2,6.72,11.75,9.46,16.1,2.62-1.72,5.18-3.38,6.1-4C706.14,443.73,712.48,442.86,714.5,442Z"/><path class="cls-19" d="M948.76,463.36s10.79-17.85,11.22-27.51c-6.79,2.58-20.45,7.83-24.62,9.75-5.62,2.59-13.83,5.62-13.83,5.62l-13.4-3-9.07-4.75-3.89,7.78a21.48,21.48,0,0,1-5.19,4.32c-3,1.73,0,2.6,0,2.6L887,462c-3,3.89-2.6,2.16-4.33,6.48s1.3,5.19,1.73,9.08-2.59,3.89-2.59,5.18-1.73,3-2.95,6.05-2.24,3.46-2.24,3.46l-3.29,2.16v3.89l2,3.89-1.73,3c-1.73,3,5.4,10.37,5.4,10.37l-4.12,4.28a6,6,0,0,0,3.33,1.92,6,6,0,0,1-3.33-1.92l-1.28,1.34s1.73,3.46,2.59,5.62-.43,3.46,0,7.35c.22,1.93,2.26,5.7,4.25,9l1.37-1.65s5.62-1.29,7.35,0-4.33-5.62,1.73,1.3,8.21,8.21,8.21,10.81,3.45,7.78,3.45,7.78l5.62,4.75-6.45,7.07a37.41,37.41,0,0,1,4.72,5c3,3.89,5.19,5.19,7.35,6.05s5.19.83,7.78,2.16a17.73,17.73,0,0,0,2.83,1c2.16-2.43,16.71-4.57,18.35-8.27,1.73-3.89,0-9.94,0-9.94s1.54-6.48.77-8.21-12-9.51-12-9.51l-15.12-8.21,1.72-7.35s-5.18-2.16-2.59-7.78,15.56-.86,17.72,2.59,6,0,6,0,.44-17.72.44-20.74,4-12.1,4-12.1,3.34-4.76,4.21-6.49,3.89-3.46,3.89-5.18-4.32-12.54-4.32-12.54Z"/><path class="cls-21" d="M654.28,350.37l-1.16,5.47,1.45,1.73a7.49,7.49,0,0,1,3.17,5.77c.28,4,2.3,1.44,4,2s3.17-1.73,5.19-4.61,2.3-.86,3.45-2.3,1.16-1.73,3.46-5.19,1.44-1.44,1.44-1.44,3.29-1.1,4.25-3.3c-1.89-1.46-4.43-3-5.69-3,1.26,0,3.8,1.58,5.69,3,0-.05.05-.1.07-.16.87-2.3,1.73-3.17.87-5.76s0,0-1.44-2a14.52,14.52,0,0,1-2-4.32l-1.73-4,2.6-2.31c2.59-2.3.86-1.15,1.72-7.2s7.78-10.09,7.78-10.09a9.32,9.32,0,0,0-2.3-2.05c-1.15-.61-1.15-1.41-6.63-2.27s-2.3-2-4.61-5.76-.57-1.73-1.73-4.61-.57-1.44-2.59-5.19c-1.43-2.66-1.56-2.71-2.13-3.34a28.22,28.22,0,0,0-5.07,2.48,28.22,28.22,0,0,1,5.07-2.48,14.91,14.91,0,0,1-1-1.27c-1.73-2.31-1.15-.87-2.88-3.17s-.87-2-2-3.46a2.84,2.84,0,0,1,0-3.17,33.71,33.71,0,0,0-2-4.32c-1.15-2-1.72-.86-1.72-.86L654,271.42H648.3s-.65,2-.07,2.88-2.31,2.3-2.31,2.3-1.73,2-2.88,3.46a56.83,56.83,0,0,1-4.32,4.61,2.44,2.44,0,0,0,0,3.75s-1.73,2-2.6,3.17a10.19,10.19,0,0,1-3.45,3c-1.44.73-2,1.87-4,2.15a32.39,32.39,0,0,0-4.61,1.16s1.15,2.59,0,8.64c-.49,2.56-2.36,4.83-4.37,6.59,3.74,5.18,15.75,22.07,15.75,25.72,0,4.32,0,10.37,4.76,15.56,1.52,1.66,3.94,4.35,6.46,7.52,1.57-1.37,4.06-7.85,4.06-7.85Z"/><path class="cls-21" d="M913.75,584.34c-2.16-.86-4.32-2.16-7.35-6.05a37.41,37.41,0,0,0-4.72-5l-2.62,2.87,2.62-2.87c-.4-.4-.83-.86-1.33-1.45-2.16-2.59-6.48,0-6.48,0s-6,6.05-8.21,7.35-2.16,2.59-3,3.89-3.89,5.18-3.89,5.18-3,7.35-8.21,11.24a32.23,32.23,0,0,0-6.07,6.92c0,.82,0,1.33,0,1.33s18.59,11.67,23.77,17.29,13,8.64,13,8.64l12.1-6.48L923.69,612v-6l3.89-6v-6.48s-4.32-3-3.45-5.62a1.29,1.29,0,0,1,.23-.38,17.73,17.73,0,0,1-2.83-1C918.94,585.17,915.91,585.21,913.75,584.34Z"/><path class="cls-19" d="M870.53,599.47c5.19-3.89,8.21-11.24,8.21-11.24s3-3.89,3.89-5.18.87-2.6,3-3.89,8.21-7.35,8.21-7.35,4.32-2.59,6.48,0c.5.59.93,1.05,1.33,1.45l6.45-7.07-5.62-4.75s-3.45-5.19-3.45-7.78-2.16-3.89-8.21-10.81,0,0-1.73-1.3-7.35,0-7.35,0l-1.37,1.65c2,3.31,4,6.13,4,6.13s-2-2.82-4-6.13l-.79.95V555H874l-9.94,9.94c-4.32,4.33-5.19,5.77-5.19,5.77v2.88s2.59,5.62,0,9.07a54.18,54.18,0,0,0-4.14,7.57c2.62,1.2,5.38,2.5,6.73,3.28,2.42,1.38,2.91,9.66,3,12.93A32.23,32.23,0,0,1,870.53,599.47Z"/><path class="cls-19" d="M624,306.57c1.15-6.05,0-8.64,0-8.64a32.39,32.39,0,0,1,4.61-1.16c2-.28,2.6-1.42,4-2.15a10.19,10.19,0,0,0,3.45-3c.87-1.16,2.6-3.17,2.6-3.17a2.44,2.44,0,0,1,0-3.75,56.83,56.83,0,0,0,4.32-4.61c1.15-1.44,2.88-3.46,2.88-3.46s2.88-1.44,2.31-2.3.07-2.88.07-2.88H654l3.75,1.73s.57-1.16,1.72.86a33.71,33.71,0,0,1,2,4.32,2.84,2.84,0,0,0,0,3.17c1.15,1.44.29,1.15,2,3.46s1.15.86,2.88,3.17a14.91,14.91,0,0,0,1,1.27c2.19-.79,4.72-1.33,6.74-.69,4.61,1.44,2,0,4.61,1.44s3.42-.27,4.73-1.72h0a21.36,21.36,0,0,1-3.16-5.77h2.17a84.18,84.18,0,0,1-3.46-7.78c-.87-2.59-6,0-7.78,0h-3.89l-2.6-3.89a26.9,26.9,0,0,1-2.16-11.67c.44-6.05-4.75-4.75-7.34-8.64s1.72-7.78-2.17-12.1a10.67,10.67,0,0,1-1.61-2.23,40.35,40.35,0,0,0-7.24.35c0,.74-.08,1.3-.08,1.3l6.34,13-4.61,1.44s2.59,7.49-2.59,7.78-6.92-.58-8.65,0l-1.73.58h-2l-6.05-2.89s-4.61-1.72-5.77-1.72-2.88.28-6.34,3.45a4.68,4.68,0,0,1-6.62,0v-3.45s0-.58-2.31-3.46-4.9-5.77-4.9-5.77-3.45,1.16-2.3-3.17,1.73-7.2,1.73-7.2c-2.88,0-2.88.58-5.06,1.15s-6.18,5.48-6.18,5.48l-4.29,2.93c5.64,8.72,12.5,19.45,15.82,26.64q7.77,16.86,10.37,22c1.73,3.46,9.51,16.86,9.51,16.86l1.1,1.51C621.66,311.4,623.53,309.13,624,306.57Z"/><path class="cls-19" d="M596.94,177.48c.28.87.86,2.31,1.44,3.75s-1.73,4.61-1.73,4.61A35.12,35.12,0,0,0,595.5,193c-.29,4.26,1.15,3.24,1.15,3.24v6.34a14.23,14.23,0,0,0,5.19.86L601,210l-2.88,1.15c-2.88,1.16-1.44,1.16-3.75,2.89a1.77,1.77,0,0,0,0,3.17l2.07,5.76s6,2.88,8.59,5.76-3.74,3.17-5.47,4.61a3,3,0,0,0-1.15,3.17s-.58,2.88-1.73,7.2,2.3,3.17,2.3,3.17,2.6,2.89,4.9,5.77,2.31,3.46,2.31,3.46v3.45a4.68,4.68,0,0,0,6.62,0c3.46-3.17,5.19-3.45,6.34-3.45s5.77,1.72,5.77,1.72l6.05,2.89h2l1.73-.58c1.73-.58,3.46.29,8.65,0s2.59-7.78,2.59-7.78l4.61-1.44-6.34-13s0-.56.08-1.3a51.13,51.13,0,0,0-5.55,1,51.13,51.13,0,0,1,5.55-1,14.06,14.06,0,0,0-.08-3.31c-.29-.86-.29-2.3-1.44-8.07s-8.64-8.64-8.64-8.64-2.6-3.46-5.48-7.2a31.65,31.65,0,0,0-4.9-5.48c-2.59-2.59-3.17-2-3.74-3.46s-3.75-3-3.75-3l1.15-4.54,6.34-6.84-2-4.61s-.87-2-1.73-4.61.29-1.73,1.15-1.88,2.59-3.6,2.59-3.6l-2.59-5.19v-4.32c0-1.27-.95-3.2-2-5-.4,1.53-1.26,2.13-4,2.13-4.75,0-1.3,10.8-6.92,11.67a10.64,10.64,0,0,1-6.48-1.11c-1.92,2.25-4.51,4.77-5,5.39C595.78,176,596.65,176.62,596.94,177.48Z"/><path class="cls-19" d="M621.14,166.24l2.59,5.19s-1.72,3.46-2.59,3.6-2-.72-1.15,1.88,1.73,4.61,1.73,4.61l2,4.61L617.39,193l-1.15,4.54s3.17,1.58,3.75,3,1.15.87,3.74,3.46a31.65,31.65,0,0,1,4.9,5.48c2.88,3.74,5.48,7.2,5.48,7.2s7.49,2.88,8.64,8.64,1.15,7.21,1.44,8.07a14.06,14.06,0,0,1,.08,3.31,40.35,40.35,0,0,1,7.24-.35c-1.13-2.25.75-2.53.75-2.53l2.59-9.5a19.18,19.18,0,0,0,5.38,0,12.56,12.56,0,0,1,4.56,0,12.64,12.64,0,0,0,4.33-3.89c1.73-2.6,2.16-6.92,2.16-6.92a12.21,12.21,0,0,0-3.46-6.48c-3-3-12.1-5.62-16.86-8.65s1.3-2.59,3.46-6.05,0,0,0-3.46c0-1.37.88-3.82,2-6.28l-.22-.2L651,170.28v-8.07a39.76,39.76,0,0,0,4.68-16.14,119.11,119.11,0,0,0,0-20.17c-.31-5.19-3-14.58-5.54-22.27-9,3.11-5.73,5.4-14.34,10.06-10.38,5.62-6.49,7.78-7.78,13.4s-3.89,1.3-5.19,7.35-2.16,12.53-3,17.72c-.35,2.15-.42,3.7-.71,4.79,1.06,1.77,2,3.7,2,5Z"/><path class="cls-19" d="M655.72,146.07A39.76,39.76,0,0,1,651,162.21v8.07l5.11,12.1.22.2C658,178.82,660,175,660,175s-2,3.79-3.67,7.55c1.37,1.25,8.89,8.08,12,10.17,3.45,2.31,5.18-3.45,9.22,0a38,38,0,0,1,8.07,9.8c1.72,2.88,4.61,2.88,9.22,0s12.1,1.44,13.25,2.16,5.76-3.6,11.53,0,12.1,5.91,10.95,12.82-2.31,16.72-2.31,16.72-5.76,4.61-6.91,0-8.07-6.92-9.8-5.19S707,232,707,236.3s4,21,7.49,27.91a90.1,90.1,0,0,1,4.61,10.38L718,282.08,714.5,289s-1.42,4.61-.92,5.49l.44-.14c.29-3.36,1.81-7.44,7-11.69-5.15,4.25-6.67,8.33-7,11.69l.48-.16c2.31-2.3,8.07-9.22,8.07-9.22s.57,4,4.61,2.88.57-6.34.57-6.34l3-6.91,4.48.57h3.45a36.85,36.85,0,0,0,5.23-3.45c1.11-1.16,4-1.73,4-1.73l4-.58,5.76-9.22s-4.61-13.26,0-13.26,15.42,1,19.6,5.19a16.12,16.12,0,0,0,5.17,2.89c3.1-2.44,8.9,4.28,8.51-3.43a114.4,114.4,0,0,0-1.73-15.13l9.94-6.91s10.38,2.16,9.95-6.92-3.89-13.83-3.46-16,6.48-10.81,14.69-29,12.54-12.53,23.78-16.86S862.75,153,862.75,153l20.75-1.29s-.43-6.49,8.64-6.92,14.26,1.73,14.26,1.73,3.46,3,6.06,2.59.43-9.07.43-9.07l-5.19-6.92L893,132.28s13.83-14.7,18.15-21.18.43-17.29.43-17.29-6.48-9.08-13.83-9.51-9.51-7.78-15.13-6.48-13,6.91-16,3.46A57.66,57.66,0,0,0,858,73.93a39.56,39.56,0,0,1-20.32,8.64,106.3,106.3,0,0,1-20.31.44L807.86,77s6-11.23,1.3-15.12-8.65,1.73-9.51-.87,4.32-3.46-2.16-11.67L791,41.08s-11.24.86-15.56-3.89l-4.32-4.75s-3-20.32-16.86-23.78-18.15-3.89-18.15-3.89L729.2,3.05,722.71.45s3,10.37,9.51,16S737,35.89,737,35.89s-3-.86-5.19,0,0,12.54-4.32,18.59S704.56,79.55,699.8,81.71s-24.2,15.56-42.35,19.88a75.45,75.45,0,0,0-7.27,2c2.5,7.69,5.23,17.08,5.54,22.27A119.11,119.11,0,0,1,655.72,146.07Z"/><path class="cls-19" d="M549.1,143.19l5.19.87a2.8,2.8,0,0,0,2.88,0c.7-.35,1.82-1,3.09-1.63a2.08,2.08,0,0,1-.19-.64c-.3-2.16,10.93-.87,11.37-4.76s-2.17-10.37-2.6-12.1-11.24-4.75-20.74,4.76c-5.17,5.16-7.4,8.28-9.4,10.48a12,12,0,0,0,3.78,1.87C546.51,143.19,543.92,142.33,549.1,143.19Z"/><path class="cls-19" d="M593.32,237.7c2.18-.57,2.18-1.15,5.06-1.15a3,3,0,0,1,1.15-3.17c1.73-1.44,8.07-1.73,5.47-4.61s-8.59-5.76-8.59-5.76l-2.07-5.76a1.77,1.77,0,0,1,0-3.17c2.31-1.73.87-1.73,3.75-2.89L601,210l.87-6.63a14.23,14.23,0,0,1-5.19-.86v.29l-2,.29a44.82,44.82,0,0,1-6.63-2.89c-1.72-1.15-2.3-.28-3.45-2.59s-1.44-.86-2.31-2-1.73-4.89-1.73-4.89L577.89,189l-1.41,4a4.4,4.4,0,0,1,0,6.41c-3.17,3.46-4.61,0-6.34,0s-4,1.73-4,1.73-3.46,6-6.34,12.39c-1.15,2.53-2.76,5.47-4.28,8.1,8.33,3.93,16.74,7.42,19.84,12.68,1.55,2.65,4.34,6.92,7.52,11.83l4.29-2.93S591.14,238.28,593.32,237.7Z"/><path class="cls-21" d="M566.11,201.11s2.3-1.73,4-1.73,3.17,3.46,6.34,0a4.4,4.4,0,0,0,0-6.41l1.41-4,2.62,1.73s.87,3.74,1.73,4.89,1.15-.28,2.31,2,1.73,1.44,3.45,2.59a44.82,44.82,0,0,0,6.63,2.89l2-.29v-.29a5.86,5.86,0,0,1-3.33-2.88,5.86,5.86,0,0,0,3.33,2.88v-6.34s-1.44,1-1.15-3.24a35.12,35.12,0,0,1,1.15-7.13s2.3-3.17,1.73-4.61-1.16-2.88-1.44-3.75-1.16-1.44-.29-2.45c.53-.62,3.12-3.14,5-5.39a15.79,15.79,0,0,1-6.91-7.54c-2.6-5.62-1.73-8.21-6.06-9.94s-13.83.43-16-3.89-4.75,5.19-10.8,3.89,4.75-3,3-5.62c-1.53-2.3-4-2.56-4.69-4.11-1.27.62-2.39,1.28-3.09,1.63a2.8,2.8,0,0,1-2.88,0l-5.19-.87c-5.18-.86-2.59,0-6.62-1.15a12,12,0,0,1-3.78-1.87,14.81,14.81,0,0,1-6.16,4.21c-6.49,2.59-4.76,19-3.46,20.75s5.18,3.89,5.18,3.89a115.86,115.86,0,0,0,5.19,13.4c2.59,5.18,4.76,8.64,4.76,8.64a5,5,0,0,1-.44,6.05c-2.59,3-4.32.87-6.48,4.76s-1.73,8.21,8.64,14.69a93.74,93.74,0,0,0,9.56,5c1.52-2.63,3.13-5.57,4.28-8.1C562.65,207.16,566.11,201.11,566.11,201.11Z"/><line class="cls-22" x1="374" y1="405.37" x2="682" y2="405.37"/><line class="cls-22" x1="239" y1="181.37" x2="547" y2="181.37"/><line class="cls-22" x1="325" y1="318.37" x2="633" y2="318.37"/><line class="cls-22" x1="586" y1="612.37" x2="894" y2="612.37"/><circle class="cls-23" cx="896" cy="612.37" r="9"/><circle class="cls-23" cx="687" cy="405.37" r="9"/><circle class="cls-23" cx="638" cy="317.37" r="9"/><circle class="cls-23" cx="555" cy="179.37" r="9"/></g></g></svg>